<svg width="97" height="42" viewBox="0 0 97 42" fill="none" xmlns="http://www.w3.org/2000/svg">
<path d="M1.58184 11.4684C2.51692 11.2624 3.73208 11.4907 4.65364 11.8021C4.94509 11.8987 4.79175 12.3218 4.99032 12.4076C5.38322 12.5749 5.74503 12.3694 6.13201 12.5685C6.25729 12.6366 6.09572 13.3072 6.22751 13.3632C6.96529 13.6654 7.65056 13.4999 8.39836 13.6493C12.0516 14.3867 15.6413 14.6853 19.3376 15.0519C20.5614 15.172 22.042 15.809 23.283 15.5642C23.4292 15.535 23.3528 14.944 23.3814 14.8959C23.8294 14.1595 23.664 15.3471 23.9464 15.5099C25.0773 16.1531 26.3164 16.225 27.4168 16.011C27.8832 15.9182 27.4365 14.7416 27.8897 15.4044C27.9212 15.4492 27.797 16.0739 27.9219 16.1422C28.2051 16.2957 28.7499 16.1899 28.9723 16.2418C29.4006 16.3451 29.472 16.3396 29.8801 16.3507C30.4412 16.3713 31.0925 16.6882 31.6907 16.551C31.8183 16.5198 31.6547 15.8767 31.8585 15.769C32.0623 15.6616 32.6005 15.7198 32.7817 15.8723C32.9628 16.0248 32.882 16.5288 32.9135 16.6446C33.1747 17.6223 33.8006 16.2742 33.8809 16.2412C35.3402 15.6795 36.5903 16.4535 37.9607 16.4531C39.0039 16.4512 40.112 16.1965 41.1026 16.2294C42.2822 16.271 43.2823 16.6151 44.4268 16.5492C44.5476 16.543 44.4018 15.7891 44.5495 15.78C46.1182 15.6834 47.6734 15.7532 49.2393 16.2459C49.3961 16.296 49.2018 16.9607 49.359 17.0503C50.3169 17.5848 51.8645 18.8728 52.3872 15.9798C53.0315 16.0833 53.8292 16.1871 54.4177 16.7587C54.7979 17.1265 54.4475 17.8545 54.9011 17.5385C55.0033 17.4681 54.8578 16.8384 55.0117 16.7806C55.6562 16.5378 56.3832 16.7294 57.0231 16.3896C57.1533 16.319 57.1057 15.7535 57.1408 15.6507C57.4365 14.8185 57.9835 16.1725 58.0986 16.2691C58.9767 16.9898 59.6163 16.6834 60.4167 16.6811C60.6028 16.6809 60.3637 15.9259 60.5418 15.8984C61.4584 15.7658 62.4513 15.8034 63.3605 16.1134C63.5637 16.1841 63.3988 16.8375 63.497 16.9045C63.9304 17.1917 63.9962 15.9649 64.4161 16.216C64.5049 16.2673 64.4739 16.8234 64.4918 16.8838C64.7718 17.8317 64.942 16.4699 65.0043 16.4379C65.7908 16.0023 66.3502 17.3981 67.1284 17.1682C67.2207 17.1393 66.984 16.4458 67.2447 16.4074C68.9593 16.148 70.8176 16.2591 72.5621 16.7295C72.8305 16.8018 72.67 17.3383 72.69 17.4024C73.0153 18.4023 73.1147 17.0339 73.1981 16.978C73.8823 16.5711 74.5905 17.6726 74.9472 16.0265C77.8961 16.4053 80.6719 15.289 83.6174 16.3622C83.6536 16.3742 83.6823 17.0467 83.7549 17.0678C84.6813 17.3185 84.392 16.3052 84.6935 14.9658C84.7555 14.632 85.4657 16.0669 85.5212 16.1704C85.7326 16.553 85.7811 17.559 85.842 17.6293C86.3538 18.1722 85.6279 14.9581 86.0709 14.8539C86.0862 14.8559 86.1688 15.4602 86.2208 15.5098C86.3854 15.6652 86.4342 15.4036 86.5869 15.5784C86.9297 15.9843 87.6396 17.4482 87.6224 16.4433C87.5266 16.3905 87.1103 14.3316 86.3275 15.0877C86.0148 14.9971 85.6784 17.5784 86.0177 17.5416C85.9361 17.3186 85.8609 17.112 85.8735 17.0011C85.8988 16.7808 86.5002 16.6357 86.5182 16.6133C86.9837 15.7774 87.3735 15.8131 88.246 14.956C89.0897 14.0679 86.7225 15.578 86.3977 15.6454C86.075 15.7128 86.4009 15.0098 86.522 14.7861C86.6476 14.5661 87.0408 14.4603 87.0892 14.3036C87.3774 13.255 85.7946 14.8886 85.3223 14.9988C84.2269 15.301 85.6091 13.7174 85.4283 13.2219C85.3833 13.0933 85.107 13.491 85.0008 13.4431C84.5896 13.2578 84.848 12.6021 84.0832 12.7119C83.953 12.7244 82.8613 13.4292 83.2579 12.5689C83.3139 12.4438 83.7243 12.1096 83.6528 11.9017C83.5477 11.5903 83.2057 11.1866 82.8567 11.1508C82.6004 11.1254 82.3121 11.9676 82.2423 11.5939C82.2097 11.4268 82.6849 11.1487 82.5941 10.8656C82.504 10.5813 81.9798 10.2654 81.7735 10.16C81.5671 10.0534 81.3369 10.6726 81.2981 10.6998C81.073 10.854 80.551 10.908 80.5191 10.8895C78.8738 10.0302 77.6442 8.30468 75.6933 7.98922C75.5421 7.96453 75.4083 8.6419 75.3829 8.6448C74.8102 8.74681 75.7906 7.16567 75.638 6.46997C75.2391 7.79867 75.1165 7.49011 74.7229 7.52057C74.5343 7.53699 74.4592 8.07722 74.4271 8.12449C73.9358 8.82159 74.0839 7.76455 74.1027 7.54458C74.1722 6.73574 73.7113 7.57337 73.7538 7.03276C73.7311 6.521 74.5459 5.7204 73.743 5.81029C74.2076 5.99835 73.7135 8.39331 75.4069 6.8123C76.31 4.88348 75.8975 7.85652 76.5498 8.17215C77.1013 8.76275 77.3549 8.83533 77.616 9.25534C78.087 10.0029 78.4199 9.05319 79.0737 8.97215C79.7346 8.88958 78.2146 10.7172 77.9938 11.1824C77.7759 11.6485 78.136 11.259 78.0619 11.5448C77.9891 11.8313 77.6239 12.006 77.7582 12.2189C77.9027 12.4399 78.9138 12.0031 79.2551 11.5863C79.9792 10.7062 80.3634 9.56025 80.6223 10.1954C80.6379 10.2331 80.2325 10.7172 80.3091 10.8346C80.924 11.7473 81.8461 12.2534 82.5943 13.0631C82.6969 13.1754 82.2942 13.7524 82.3517 13.8252C82.9633 14.5877 83.1605 13.3943 84.0966 12.3876C83.3165 13.9303 83.1388 15.0063 83.748 15.2723C84.11 15.4307 84.338 14.7088 84.776 14.3154C84.9063 14.196 84.967 14.7815 85.1492 14.4734C85.749 13.4683 85.9987 12.165 86.4409 12.9122C86.4591 12.9466 86.1229 13.4929 86.2036 13.5689C86.7354 14.0733 87.2843 12.9782 88.1243 13.2342C88.7733 13.43 89.6513 14.7988 90.1739 15.8068C88.5878 16.9133 89.2363 17.1232 90.5569 16.7995C90.7354 17.2947 91.0246 17.9516 90.9115 18.5491C90.8732 18.7547 90.2987 18.6866 90.2415 18.7184C89.3273 19.1103 90.618 19.2351 90.6653 19.3864C91.0688 20.8279 89.6971 21.3696 89.8395 22.786C89.8459 22.8344 90.8644 23.7286 89.8971 23.3575C89.8351 23.3253 89.5868 22.6655 89.2252 23.0253C88.8488 23.401 87.7309 23.4852 87.6485 24.3639C87.6319 24.5755 87.9888 25.696 87.2105 25.2145C87.1062 25.1481 86.9075 24.8134 86.7295 24.6787C86.1649 24.247 86.8903 25.4057 86.0287 24.6017C85.1655 23.7985 84.3395 23.3252 84.2876 24.3188C84.2846 24.3486 84.7633 25.3273 84.5921 25.4186C84.3193 25.5633 83.8317 25.6068 83.565 25.7813C83.4369 25.8655 83.8744 26.3829 83.8582 26.4074C83.173 27.2749 82.23 27.1383 81.1534 27.4791C80.9544 27.5409 80.929 28.6212 80.2226 28.2036C79.4459 27.7497 78.1213 24.699 77.6585 25.9045C77.462 26.3957 79.2839 30.1794 77.5039 28.7628C76.6557 29.9713 74.8656 29.8989 74.3534 31.5014C74.3286 31.5749 75.057 32.4991 74.9558 32.5872C74.8001 32.7191 74.3083 32.4648 74.1801 32.5594C73.6339 32.9495 73.5772 33.7063 73.083 34.1185C72.8966 34.2744 72.5502 33.8228 72.3303 34.0025C72.1116 34.1804 72.4981 34.8434 71.9692 34.8569C71.5668 34.8658 70.322 33.9564 69.9369 34.0682C70.9337 35.1825 70.7227 35.3363 70.6266 35.9428C70.6081 36.0601 71.0228 36.3895 71.0311 36.4657C71.0701 36.7868 70.6638 36.5661 70.7232 36.8972C70.7369 36.9771 71.0627 37.3704 71.0917 37.4584C71.3483 38.2251 70.2269 37.6481 70.0453 37.5344C69.3343 37.1236 69.6189 37.7387 69.2485 37.6381C68.8821 37.5335 68.9455 37.0275 68.6226 37.0357C67.9562 37.0512 67.4188 37.501 66.9243 37.7806C66.7311 37.8934 67.2199 38.3922 67.2005 38.4218C66.8886 38.8187 66.1062 38.4409 66.5739 39.7418C64.5042 36.8861 66.5012 40.1816 65.5564 39.9163C65.4812 39.8941 64.5959 38.4881 64.6467 38.1772C64.6982 37.8662 65.2249 38.1602 65.2705 37.692C65.2846 37.5805 64.8079 36.0538 64.7988 35.949C64.7507 35.1187 66.085 37.2097 66.1756 37.3143C67.1501 38.4429 66.66 36.7718 66.6899 36.6147C66.8545 35.88 67.4136 35.9228 67.5378 35.367C67.6206 35.0049 66.6672 33.6875 66.8498 33.6116C67.4406 33.3646 69.1394 34.8964 68.3523 32.9733C68.1838 32.5618 66.8908 31.3386 68.1975 32.0383C68.2771 32.0854 69.4332 32.7566 69.0371 32.0161C68.9866 31.9233 68.6277 31.5503 68.6233 31.4942C68.5996 31.1264 69.0021 31.3093 69.0468 30.9844C69.0908 30.6599 69.091 30.2359 69.4182 30.1426C69.6139 30.0871 70.4812 30.5672 70.7167 30.6582C71.3926 30.9243 70.7272 29.99 71.4528 30.4088C72.1895 30.8206 72.9281 31.8945 73.6307 31.8914C72.6163 31.0079 71.5886 30.0848 70.5746 29.1886C71.4218 28.2433 72.9818 27.4813 73.8521 26.7645C73.9663 26.6684 73.411 26.1803 73.5254 26.0606C74.0177 25.5545 74.7891 25.65 75.2232 25.1173C75.5628 24.6996 75.62 23.7564 75.9611 23.3179C77.0412 24.4583 77.4022 23.6262 77.9303 23.4739C78.114 23.4204 78.3146 23.7794 78.4955 23.8274C79.1718 24.0009 78.2764 22.9517 78.2821 22.6989C78.307 21.6202 79.9243 24.2407 80.4553 23.8337C80.4851 23.8124 80.0008 22.1885 79.9951 22.0724C79.9619 21.3133 80.3433 22.5293 80.6018 22.514C81.0707 22.4876 81.5273 22.6669 81.6686 22.0088C81.7087 21.815 81.4275 20.7808 82.0709 21.3042C82.1558 21.3723 82.4388 21.8354 82.4791 21.8468C83.1913 22.0098 82.2467 20.5885 82.1248 19.9709C82.0055 19.3515 82.9865 20.09 83.2597 20.3081C83.9554 20.882 83.3541 20.7062 83.397 20.7806C83.8929 21.6874 84.0343 21.3658 84.2671 21.2949C85.3139 22.5988 85.5226 22.3058 84.5014 21.2168C84.3909 21.0974 84.3508 21.3271 84.2671 21.2949C83.4288 19.8704 83.4874 19.5583 84.7488 20.4882C85.3446 20.9167 85.8086 21.6382 85.9716 21.0556C86.0405 20.7913 85.1594 20.0457 85.0364 19.719C84.7317 19.0019 85.7437 19.4053 85.6564 19.1973C85.6145 19.1413 85.0294 18.9063 84.9711 18.8809C84.8005 18.8494 85.2296 19.0375 84.9819 19.1074C84.9581 19.1188 84.3047 19.0186 84.2915 19.0792C84.1582 19.5637 84.8853 19.9168 84.6819 19.5333C84.9757 19.9716 84.9734 20.3182 84.76 20.1212C84.5112 19.8338 83.9156 18.5388 83.1401 18.4716C82.6317 18.4221 82.4734 19.0703 82.1017 19.4021C81.3706 20.0419 81.2653 18.2984 81.2656 18.0337C81.2676 18.0262 81.7473 18.0649 81.6598 17.658C81.8126 16.9554 81.272 18.0332 81.2656 18.0337C81.2659 17.8652 80.4887 17.3514 80.2622 17.3819C80.1405 17.4009 79.9267 17.9908 79.8682 17.9899C78.4775 17.9531 77.1869 17.4509 76.1808 16.4945C76.1669 16.4712 76.5613 15.8932 76.5249 15.8465C76.0377 15.1828 75.1687 15.6336 74.3374 15.6776C73.5169 15.7274 73.1556 15.2481 73.5709 14.0566C73.0814 13.8756 72.8835 13.0361 72.8125 12.5567C72.7643 12.0987 71.7207 12.9891 71.6669 12.9763C69.4846 12.0386 69.6165 10.87 68.9077 8.84731C68.8272 8.5853 68.706 8.25544 68.5742 7.72393C68.611 7.00032 67.5636 7.21701 69.0851 3.42C69.6266 2.38894 71.0243 0.96419 73.0188 0.628194C74.8467 0.348328 75.5113 0.801667 75.6214 0.784192C75.7114 0.792959 75.802 0.801011 75.8911 0.808385C76.07 0.823361 76.2393 0.834425 76.3826 0.84102C76.8419 0.861797 77.0119 1.25398 77.4564 1.19038C77.5173 1.18249 77.661 0.591431 77.6845 0.57485C78.3597 0.0411163 77.6638 1.36776 77.6654 1.64827C77.6648 2.66776 77.6744 3.21333 78.3692 2.99135C78.5262 2.9396 79.6617 1.09202 79.9509 1.07343C80.318 1.05016 79.9145 1.71103 80.3062 1.67192C80.3397 1.66948 80.5138 1.23077 80.7055 1.33367C81.6013 1.80753 82.4911 2.52132 83.4661 2.97871C83.5994 3.04343 83.7778 2.29222 83.9789 2.37682C84.9244 2.7757 85.9156 3.39188 86.5869 4.26161C86.7503 4.47739 86.3247 4.82268 86.2834 4.98218C86.027 5.94256 87.1905 5.09321 87.2763 5.12377C89.2412 5.75046 89.5892 7.67651 91.4061 8.87471C91.4991 8.92383 93.2504 8.74965 92.4963 9.85056C92.4509 9.92943 91.6376 10.9914 92.5593 10.7843C92.6179 10.7734 93.0185 10.1823 93.2176 10.599C93.4068 11.0009 94.2066 11.4531 93.8942 12.4174C93.7974 12.7231 92.8576 13.6927 94.0017 13.7481C94.0412 13.7489 94.6747 13.7058 95.123 13.7741C95.2979 13.7745 96.6104 15.9105 96.2985 17.7637C96.0506 19.4964 95.1911 20.3825 94.3871 20.7823C93.9749 20.821 92.191 20.6246 90.8217 22.3005C90.5531 22.6184 91.3341 22.6756 90.5452 23.2912C89.7061 24.0392 88.8686 23.7828 88.4221 24.6669C88.3502 24.8222 88.0734 26.0594 87.5883 25.2688C87.5101 25.1456 87.4958 24.5741 87.3131 24.5459C86.4171 24.4131 85.725 24.9012 84.8854 24.6239C84.618 24.5222 84.6231 23.6024 84.3332 23.3946C84.0436 23.187 83.4831 23.0197 83.242 23.4663C83.0224 23.9107 83.4819 25.3197 83.0919 25.4805C81.3214 26.1844 79.5525 25.4766 77.7852 25.4792C77.5344 25.4784 77.7794 25.982 77.409 26.0178C76.0243 26.1554 73.6455 26.78 72.4136 25.7354C71.4103 24.9004 72.5835 24.1679 71.8335 23.8449C71.4702 23.691 71.1691 25.3949 71.0901 25.4518C70.3003 26.029 69.6871 25.3073 68.9417 25.5678C68.7929 25.6216 68.9691 26.299 68.8418 26.3373C68.4069 26.4738 67.928 26.1871 67.5021 26.2592C67.3109 26.2931 67.366 26.8139 67.1869 26.7802C66.7572 26.7057 66.374 26.4997 65.9529 26.0243C65.9143 25.981 66.1411 25.3228 65.8323 25.3093C65.332 25.2894 64.6922 24.8272 64.1225 25.3442C63.9535 25.4996 63.9829 26.6935 63.593 25.8803C63.5109 25.7105 63.5664 24.2744 63.177 25.5254C63.1124 25.7334 62.4394 27.4248 62.0521 26.3578C61.9502 26.0771 61.6783 24.9107 61.4752 25.1006C61.4477 25.1308 61.5782 25.7689 61.4071 25.8361C60.8124 26.0614 60.1869 26.0087 59.5706 26.2244C59.4061 26.2832 59.669 26.9409 59.423 27.0074C58.7422 27.1913 57.9011 27.0407 57.2344 26.8465C56.9888 26.7736 57.1463 26.2205 57.1273 26.161C56.8223 25.1938 56.6793 26.5104 56.5856 26.5889C56.0011 27.059 55.5434 26.4503 55.0057 26.623C54.8571 26.669 54.9739 27.2934 54.9451 27.3498C54.6457 27.9007 54.8563 26.7721 54.6588 26.6515C54.1058 26.3098 53.4906 26.37 52.9381 26.4582C52.736 26.4915 52.9745 27.2143 52.7929 27.2358C51.7194 27.3768 50.5817 27.3218 49.5285 26.9328C49.3294 26.8583 49.4481 26.2977 49.4054 26.1704C49.1114 25.2799 48.7065 26.503 48.6112 26.6201C48.1787 27.1545 48.0036 26.6615 47.6173 26.7573C45.7368 27.2337 43.4019 26.9187 41.6224 26.7204C39.3002 26.4654 37.5055 25.9316 35.2935 26.0614C35.1526 26.0689 35.2916 26.8134 35.1701 26.8294C33.6049 27.0024 32.06 26.7017 30.4985 26.9027C30.3704 26.9179 30.5486 27.6248 30.3427 27.6728C29.9145 27.7763 29.3734 27.7326 28.9463 27.5029C28.738 27.3922 29.0255 26.79 28.8159 26.6909C28.3263 26.4588 27.8131 26.4027 27.3009 26.5094C27.0841 26.5564 27.4006 27.2817 27.1195 27.2865C25.2118 27.3343 23.3477 27.4283 21.471 26.4592C21.3422 26.3927 21.2579 24.925 20.9757 25.2012C20.9475 25.6076 20.9401 26.0862 20.9232 26.5208C18.1895 26.7072 15.5113 26.1589 12.7722 26.0469C12.658 26.0424 12.8457 26.8215 12.625 26.8166C11.3308 26.7895 10.0784 26.9912 8.76621 26.2069C8.63525 26.1302 8.71276 24.7643 8.32791 24.9675C8.26419 25.0046 7.67155 25.1817 7.52354 25.4771C7.50314 25.5217 7.60185 26.1604 7.41778 26.1775C6.3256 26.2653 5.18674 26.1117 4.10585 25.7161C3.93276 25.6511 4.12344 24.9729 3.99622 24.9206C3.11552 24.5553 2.13653 25.0678 1.30528 24.4492C0.733585 24.0328 0.947819 22.8591 0.649525 21.7029C0.601321 21.5398 0.259637 21.5137 0.238543 20.8413C0.191646 19.1504 0.361874 17.2989 0.295203 15.4966C0.278275 15.1083 -0.187174 15.5264 0.0853395 14.5883C0.104694 14.5255 0.460412 14.2143 0.535886 13.8962C0.594219 13.6762 0.488584 12.9922 0.610053 12.7107C0.739697 12.4295 0.866632 13.0029 1.06675 12.6724C1.26297 12.3377 1.18476 11.5595 1.58184 11.4684ZM72.1866 9.79651C72.4704 9.05616 70.405 10.2695 71.2127 10.4403C71.2544 10.4468 72.1746 9.83508 72.1866 9.79651ZM74.0582 28.975C75.0948 29.4857 74.3691 28.0891 73.6002 27.6567C72.8183 27.2382 73.7297 28.8331 74.0582 28.975ZM71.4801 32.7549C72.4009 32.9967 69.9709 30.6273 70.1561 31.4268C70.1661 31.4723 71.4271 32.7403 71.4801 32.7549ZM2.05213 21.3771C2.04618 21.3453 1.79012 21.3135 1.78567 21.345C1.64852 22.1045 2.15836 22.1675 2.05213 21.3771ZM69.0593 36.0891C69.4582 36.361 69.4466 35.6877 68.949 35.3566C68.5566 35.0849 68.5708 35.7464 69.0593 36.0891ZM86.2733 12.4155C86.251 12.4435 86.3526 12.6011 86.4991 12.4629C86.9708 12.0161 86.6521 11.9423 86.2733 12.4155ZM63.1168 39.8339C64.0965 39.4316 66.0447 41.547 64.8753 41.8448C64.6641 41.8981 64.8313 40.8435 64.4722 40.756C63.8257 40.5921 64.4017 42.2863 63.503 41.7073C63.342 41.5995 63.056 39.8526 63.1165 39.8295C63.1166 39.831 63.1167 39.8324 63.1168 39.8339ZM74.4331 7.99039C74.4551 7.96828 74.3477 7.74041 74.3185 7.75056C73.5863 8.01031 73.8364 8.52643 74.4331 7.99039ZM83.06 17.0941C83.0423 17.0288 82.4357 17.0377 82.4325 17.1001C82.2696 18.3703 83.483 18.3578 83.06 17.0941ZM90.1397 15.8483C91.0225 15.7876 91.2917 16.1064 90.5571 16.7976C90.4522 16.4628 90.3368 16.2246 90.1397 15.8483Z" fill="#EABE4C"/>
</svg>
