<svg width="66" height="74" viewBox="0 0 66 74" fill="none" xmlns="http://www.w3.org/2000/svg">
<path d="M33.809 48.4636C33.0156 49.381 32.4564 50.9898 31.295 52.7025C28.797 55.2957 31.6531 53.627 27.6933 57.3633C26.8629 58.0053 24.3543 57.7237 23.6696 56.9725C22.8826 56.3346 22.6207 55.8097 22.4143 55.4909C22.124 55.0353 21.8943 54.6447 21.6483 54.1596C21.1793 53.2418 20.818 52.3705 20.4983 51.4791C19.8631 49.7053 19.4362 47.9447 19.024 46.2713C18.1314 42.9593 17.7973 41.8809 16.8953 41.3193C15.4707 40.5366 12.9368 40.2335 8.34684 40.605C7.21706 40.6849 5.73368 40.7424 4.50553 40.583C3.73491 40.4292 3.53049 40.7268 1.69258 39.7703C1.22139 39.7077 -0.255832 37.364 0.506317 36.0974C1.00338 35.0432 1.32897 34.9533 1.55899 34.7263C2.01511 34.3599 2.30163 34.2044 2.54604 34.0523C4.62084 32.7939 6.82168 31.8858 8.82358 31.2266C12.8545 29.9044 16.3325 29.4465 18.5075 28.9816C20.5024 28.5068 22.836 28.8988 23.0248 29.2012C23.0408 29.558 23.0525 28.074 22.0262 30.9402C22.0786 30.7612 22.1254 30.8451 22.1222 30.7161C22.0671 30.3784 21.4654 29.6884 20.3335 29.1022C15.5936 26.7544 12.005 25.9591 7.46668 22.6384C7.19838 22.4193 6.96285 22.2454 6.53257 21.8738C6.41489 21.7597 6.31229 21.7137 6.04164 21.3325C5.95497 21.1974 5.4601 20.4557 6.027 19.576C6.56595 18.9079 6.81487 19.0072 6.98572 18.9335C7.59074 18.816 7.7675 18.8883 8.00964 18.8926C8.94546 18.9514 10.0564 19.0431 11.209 19.1878C13.5336 19.4731 16.1606 20.0013 18.7331 20.7493C21.25 21.3172 24.1049 23.1971 25.1247 22.0433C26.2635 21.0436 26.0457 18.6951 25.8471 17.4314C25.6278 16.0872 25.39 14.6723 25.2856 13.1447C25.261 12.7643 25.2434 12.3373 25.2518 11.8972C25.2685 11.632 25.2114 11.6466 25.3624 11.0238C25.4105 11.1584 25.3568 9.45115 27.4466 10.1157C28.1643 10.6351 27.9512 10.6499 28.0513 10.7604C28.1441 10.942 28.1767 11.0396 28.2163 11.1445C28.4866 11.9169 28.6584 12.5449 28.869 13.2038C29.6843 15.8217 30.6459 18.1918 31.6153 19.8518C32.216 20.8855 32.7054 21.6977 33.0737 22.3344C33.4265 22.936 33.0512 23.0688 32.5736 22.5211C31.2974 21.0474 29.4519 18.7728 27.5756 15.7756C26.7026 14.3907 26.1523 13.1632 25.7486 12.2352C25.7117 12.1454 25.607 11.9647 25.6982 12.1231C25.8428 12.1245 25.348 12.5463 26.9645 12.645C28.4441 12.0555 27.8566 11.8259 27.9923 11.7836C28.0262 11.6713 28.0193 11.6561 28.0168 11.6871C28.0121 11.8876 28.0175 12.0982 28.0233 12.3006C28.0356 12.7167 28.0626 13.2176 28.0922 13.7156C27.934 15.7897 29.6241 17.822 27.253 23.1273C26.4625 24.4563 24.093 25.0562 23.081 24.6635C21.9891 24.4357 21.1172 24.1932 20.2213 23.9859C18.45 23.5674 16.7963 23.2592 15.0819 23.0259C13.3781 22.7949 11.6118 22.6339 9.71336 22.5527C9.23761 22.5326 8.75418 22.5174 8.2435 22.5082C8.02666 22.5004 7.53819 22.5138 7.76624 22.4923C7.84477 22.456 7.86708 22.5747 8.52005 22.1699C9.57992 21.7537 9.27736 19.1238 9.04881 19.2426C8.71936 18.8342 8.82547 19.0153 8.86638 19.0331C9.60507 19.5987 10.4691 20.1597 11.5202 20.7348C15.808 23.0373 18.9877 23.4622 22.7106 25.2876C23.6536 25.7905 24.6732 26.3192 25.768 27.6134C26.2698 28.1916 26.947 29.4433 27.0202 30.5935C26.9333 31.0326 27.5104 30.3078 26.6267 32.5804C25.8732 33.7703 25.3084 33.8659 24.8854 34.0837C24.0386 34.424 23.4581 34.4539 22.8398 34.4505C20.4402 34.2759 18.1637 34.3691 14.7727 34.7703C11.4392 35.1922 8.92736 36.0815 6.99525 37.1087C6.13855 37.5541 4.79459 38.4548 4.79003 38.5759C4.81808 38.4974 5.13623 38.5721 5.33688 37.3969C5.4006 35.9733 4.45172 35.5039 4.38561 35.44C4.08878 35.2656 4.29081 35.3459 4.42363 35.3366C4.74131 35.3481 5.15905 35.3407 5.62451 35.3216C7.1015 35.1943 9.16003 34.7061 11.6179 34.4036C14.1662 34.4656 16.9681 32.3263 22.822 36.9167C26.4429 40.7324 27.0234 45.5068 27.826 48.9308C28.0205 49.8 28.2205 50.6108 28.4468 51.3147C28.5563 51.6533 28.6436 51.914 28.8042 52.2841C28.8145 52.3777 28.845 52.0729 27.9817 51.4162C27.0115 50.4558 24.2146 51.1151 24.13 51.459C23.4216 52.2437 24.2298 51.085 25.5274 49.6471C26.7016 48.5814 26.2584 49.0785 26.4316 48.9105C26.5586 48.7903 26.7442 48.5603 26.9386 48.2762C28.1401 47.1036 26.8564 45.3288 32.2237 42.651C36.5269 42.2449 36.2749 43.8242 37.1757 44.1545C37.8831 44.6748 38.4966 45.1439 39.1071 45.5914C41.4362 47.2533 44.0724 49.1636 45.7346 50.5909C49.2077 53.4672 52.8615 57.1251 56.5937 61.1977C58.4018 63.1416 60.5396 65.6533 62.0653 66.9869C61.8655 67.2245 63.7348 66.5858 59.8861 66.9302C57.2564 68.2705 58.0689 69.7492 57.9574 69.5985C57.9802 69.6898 57.9585 69.46 57.9466 69.356C57.8884 68.8329 57.7744 68.2732 57.6134 67.6977C57.2914 66.5457 56.7878 65.3437 56.1719 64.1583C53.5667 59.1734 49.0581 54.2036 44.7223 48.445C43.6476 46.9543 42.5377 45.5283 41.6012 43.2901C41.2806 42.2677 40.1059 40.083 42.2596 37.4364C44.9047 35.1239 45.794 35.9242 46.7493 35.6609C50.5371 35.3081 53.9299 35.3612 57.2094 35.3188C58.0209 35.309 58.8443 35.2914 59.6072 35.2408C59.9837 35.2164 60.3693 35.174 60.5546 35.1453C60.6109 35.1655 60.773 34.9913 60.1418 35.4276C59.7898 35.5166 58.7206 37.4641 59.4155 38.5946C60.0033 39.6315 60.135 39.4179 60.1675 39.4785C60.7004 39.5793 57.4387 38.8094 55.7922 38.4038C51.9737 37.4185 47.9307 36.2559 44.4009 33.4614C41.3068 30.7492 42.8174 28.5688 42.4253 26.8787C42.3299 25.1142 42.2283 23.3981 42.1311 21.7991C41.936 18.5938 41.7452 15.7874 41.5899 13.5997C41.2731 9.24771 41.0333 6.52629 40.5006 3.97496C40.6755 3.45414 38.8634 2.27979 40.9093 2.7217C41.0656 2.66738 40.2798 3.63224 40.0493 4.18415C39.4321 5.45141 38.8739 7.12406 38.2089 9.09355C36.67 13.6489 34.6491 19.9361 32.7692 25.2822C31.7806 27.9772 31.5266 27.2305 31.9917 24.4166C32.6675 20.2634 33.8109 17.0061 33.9372 14.7672C34.2247 10.2863 34.3493 8.42313 37.1617 3.37841C37.5552 2.72034 37.9935 2.04253 38.4189 1.48646C38.5218 1.35023 38.6166 1.22781 38.6898 1.12923C39.0108 1.21262 37.6168 0.334366 41.0087 0.0832312C43.8596 1.75707 42.4348 1.59832 42.863 2.03386C43.3257 3.29456 43.5787 4.15757 43.8845 5.02833C44.4655 6.72029 44.9965 8.12668 45.1406 9.72702C45.386 12.9275 44.7059 13.0292 46.9472 28.9315C47.0179 29.3832 47.113 29.8885 47.1726 30.0188C47.2877 30.1162 46.7047 29.3359 47.2332 29.785C47.8634 30.2111 48.4982 30.5466 49.2142 30.8711C50.6272 31.5058 52.1089 31.9517 53.5435 32.3045C56.4914 33.039 58.8315 33.1982 61.9022 33.8731C62.4633 34.027 63.113 34.2285 63.8982 34.8795C64.1473 35.1264 64.6043 35.4083 64.9805 36.5474C65.3841 37.5703 64.7301 39.3128 64.2768 39.692C63.2152 40.7532 62.9546 40.6163 62.6118 40.7916C61.4134 41.1979 60.9081 41.2094 60.242 41.3149C59.0165 41.4793 57.9598 41.5593 56.9637 41.6348C54.9819 41.7796 53.2968 41.8709 51.7958 41.9762C50.309 42.0857 48.3587 42.1346 46.503 42.35C46.04 42.4131 46.7115 42.4858 47.2819 41.6522C47.8056 40.7677 47.5096 40.4235 47.5782 40.6533C47.6531 41.0903 48.1787 42.1594 48.7839 43.1352C51.3091 47.167 55.0362 51.6581 58.0957 55.7451C59.6228 57.8209 61.5908 60.3973 63.1346 64.1029C63.5079 65.0235 63.839 66.0072 64.0834 67.0714C64.2058 67.6068 64.304 68.1501 64.3726 68.7384C64.3714 69.0235 64.5658 69.1043 64.3209 70.4803C64.3796 70.9254 62.9083 73.119 61.4885 73.1678C60.0387 73.3319 59.7276 73.0068 59.2862 72.8505C55.9618 70.7835 55.7543 69.7585 54.2924 68.3185C49.3653 62.8321 44.6029 57.9135 41.5063 55.6271C38.4701 53.3215 36.9695 52.3977 35.4753 51.0481C34.7617 50.4124 34.1022 49.749 33.4038 49.0923C33.207 48.8055 32.0891 48.312 33.1822 48.5588C34.352 48.5055 34.1912 47.946 33.809 48.4636Z" fill="#EABE4C"/>
</svg>
