<svg width="107" height="81" viewBox="0 0 107 81" fill="none" xmlns="http://www.w3.org/2000/svg">
<path d="M30.5646 42.5677C30.5328 42.8138 30.3227 42.3513 30.1895 41.8908C30.1447 41.7442 30.4359 41.43 30.4128 41.3116C30.363 41.0777 30.1084 41.1579 30.0625 40.8936C30.0473 40.8035 30.4791 40.2831 30.4532 40.2006C30.3109 39.7543 29.912 39.7069 29.6525 39.3827C29.004 38.5783 28.2613 37.8839 27.4374 37.2234C26.9941 36.7879 26.7529 36.5755 26.0797 36.3169C25.6817 36.1578 25.0706 35.5227 24.5159 35.818C24.4527 35.8528 24.5211 36.4398 24.5116 36.4889C24.3729 37.2415 24.3653 36.0499 24.2249 35.9011C23.6712 35.314 23.017 35.3479 22.5276 35.6722C22.3186 35.8122 22.7672 36.9183 22.4189 36.3169C22.3944 36.2765 22.3293 35.651 22.2535 35.5981C22.0809 35.4792 21.8294 35.6485 21.7067 35.6262C21.4673 35.5803 21.4327 35.5953 21.2244 35.6402C20.9395 35.6964 20.5166 35.4896 20.2472 35.7173C20.1913 35.7674 20.4588 36.3575 20.3886 36.4924C20.3187 36.6267 20.0348 36.6577 19.8975 36.543C19.7602 36.428 19.6444 35.9355 19.5926 35.8306C19.153 34.9463 19.2512 36.3391 19.2248 36.3838C18.6808 37.1728 17.7315 36.7081 17.1027 36.9799C16.7185 37.154 16.4384 37.597 16.0694 37.7977C15.6301 38.0333 15.0561 38.0391 14.6852 38.4489C14.6463 38.4912 15.1986 39.0096 15.1548 39.0601C14.6922 39.5957 14.1307 40.076 13.2034 40.3862C13.1097 40.4172 12.6729 39.9071 12.5477 39.9141C11.7966 39.9589 10.2025 39.871 12.289 41.8907C11.9666 42.1244 11.6094 42.3986 11.1333 42.0832C10.7749 41.9566 10.1764 41.544 10.3911 41.7992C10.4411 41.853 11.0204 42.1073 11.0596 42.1528C11.2333 42.3239 11.026 42.3294 11.3423 42.4284C11.4089 42.4459 11.9735 42.4916 12.0752 42.4994C12.9014 42.519 11.5359 42.4851 11.4387 42.5387C10.7095 42.7312 11.0417 42.9391 11.1103 43.1891C11.1272 43.2521 11.8227 42.9354 11.8619 42.9778C12.0185 43.1133 12.2016 43.6596 12.1157 44.191C12.0963 44.3135 11.4764 44.5334 11.4387 44.6089C11.2833 44.9438 12.3805 44.3937 12.2485 44.684C12.2226 44.7452 11.7297 45.003 11.6809 45.0398C10.9192 45.6269 12.1457 45.0294 12.1851 45.0348C12.7319 45.1245 11.6898 46.1019 12.1021 46.3179C12.151 46.3403 12.6486 45.835 12.7491 45.92C13.4236 46.4853 13.9107 47.3057 14.1991 48.3557C14.2459 48.5193 13.8073 48.8299 13.769 48.8832C13.1852 49.7295 14.1927 48.8074 14.2615 48.8012C14.7838 48.7818 14.3102 49.8828 15.5596 48.8171C16.4194 50.2829 18.2557 50.4623 18.8951 52.5573C18.9046 52.5829 18.5212 53.1341 18.5422 53.1829C18.7956 53.7778 19.2495 52.8337 20.1808 51.9044C20.4123 51.6696 19.8595 53.1275 19.8251 53.2376C19.6909 53.6399 19.1167 54.4599 19.1014 54.5439C18.9975 55.2129 20.6004 52.331 20.8666 52.4798C20.8723 52.4893 20.5399 52.9987 20.5329 53.064C20.5105 53.2688 20.698 53.0972 20.6658 53.3183C20.589 53.8284 19.8811 55.2683 20.5786 54.5855C20.6679 54.496 21.5098 52.8253 21.7109 53.0332C21.7914 53.1185 22.2364 53.3159 22.3024 53.4857C22.3685 53.6558 22.0096 54.1491 22.0062 54.1767C21.9764 55.0571 21.7002 55.2866 21.3413 56.4277C20.9889 57.5665 22.1981 55.0358 22.4068 54.7903C22.615 54.5455 22.5717 55.2578 22.5327 55.4932C22.4936 55.7287 22.2482 56.035 22.2464 56.1783C22.244 57.1179 23.0154 55.0046 23.3271 54.6612C24.0591 53.8442 23.3814 55.8241 23.5616 56.1329C23.6096 56.2159 23.7513 55.7594 23.8329 55.7485C24.1501 55.709 24.0314 56.3683 24.5602 55.954C24.6476 55.8871 25.3823 54.8461 25.1591 55.7504C25.1269 55.8807 24.8572 56.3283 24.918 56.4819C25.0092 56.7124 25.2532 56.9419 25.4948 56.8567C25.6729 56.7934 25.8623 55.9459 25.9177 56.2578C25.9425 56.3971 25.6146 56.8005 25.6785 57.0241C25.7418 57.2476 26.0958 57.372 26.2342 57.4104C26.3726 57.4484 26.5473 56.8198 26.5746 56.7839C26.7335 56.5791 27.0988 56.391 27.1203 56.4005C28.2489 56.7735 28.9037 58.1892 30.1356 58.2456C30.2316 58.2508 30.4031 57.5867 30.4201 57.5809C30.811 57.4161 29.9696 59.0445 29.9778 59.6921C30.4085 58.3742 30.4484 58.6547 30.7091 58.5846C30.8348 58.5496 30.956 58.0235 30.9833 57.9748C31.3994 57.2565 31.1584 58.287 31.1157 58.5001C30.9579 59.2837 31.37 58.4353 31.2669 58.9596C31.1659 59.4804 30.7565 60.1644 30.9652 60.2247C31.1816 59.7742 31.4478 58.4953 31.6682 58.3481C32.4955 57.7905 33.2544 59.1052 33.6959 59.3525C34.1337 59.5996 34.3123 59.5577 34.5342 59.8124C34.9363 60.272 35.0307 59.2957 35.4614 58.9642C35.892 58.6321 35.0765 60.8593 34.9779 61.3607C34.8792 61.8618 35.0747 61.3735 35.0515 61.658C35.0285 61.9424 34.8119 62.2397 34.9128 62.3784C35.0146 62.5174 35.6204 61.75 35.8111 61.251C36.2162 60.1943 36.3836 59.0123 36.6044 59.5068C36.617 59.536 36.3851 60.1172 36.4421 60.1987C36.9059 60.8274 37.5111 61.0233 38.0036 61.5914C38.0709 61.6705 37.8207 62.3205 37.8582 62.3742C38.2489 62.9344 38.3657 61.758 38.9601 60.5721C38.4684 62.2276 38.3567 63.2899 38.7378 63.3968C38.9686 63.462 39.1126 62.7209 39.3898 62.2426C39.473 62.0983 39.5106 62.641 39.6252 62.3041C39.9997 61.2029 40.1596 59.9067 40.4218 60.5027C40.433 60.5307 40.2284 61.1337 40.2781 61.1854C40.5991 61.5222 40.9271 60.3545 41.3708 60.3087C41.7192 60.2728 42.1153 61.1226 42.4631 61.3235C42.0302 63.2151 42.4839 62.861 42.9113 61.5849C43.1393 61.691 43.4101 61.6722 43.6033 61.9023C43.6705 61.981 43.5014 62.5194 43.4989 62.581C43.4589 63.5459 43.8322 62.2943 43.8937 62.255C44.5516 61.8859 44.8172 62.9459 45.5273 62.1022C45.5528 62.0718 45.8214 60.751 45.7881 61.7469C45.7857 61.8155 45.5022 62.3854 45.744 62.4804C45.982 62.5747 46.3452 63.3784 46.798 62.8256C46.908 62.6928 47.2911 61.6499 47.329 62.525C47.3339 62.6438 47.2494 63.0215 47.2493 63.24C47.2514 63.9371 47.5163 62.5983 47.4701 63.7596C47.4224 64.9208 47.5862 65.8165 48.0636 65.0717C48.079 65.0503 48.3041 63.9903 48.4144 64.0211C48.591 64.0714 48.8233 64.3262 49.0143 64.3416C49.1061 64.3487 49.126 63.6759 49.1433 63.6655C49.794 63.3634 50.1585 64.0052 50.7892 64.3293C50.9057 64.3901 51.3347 63.5132 51.5005 64.254C51.6861 65.065 51.1239 68.321 51.8064 67.592C52.0867 67.3004 52.7022 63.1605 52.9753 65.3482C53.842 64.8701 54.5725 66.0151 55.4409 65.2686C55.4805 65.2355 55.6214 64.0726 55.7062 64.0897C55.8335 64.1175 55.8993 64.6629 55.992 64.6996C56.3831 64.8669 56.7371 64.3984 57.1097 64.4621C57.2523 64.4848 57.2172 65.0494 57.3905 65.0755C57.5662 65.1006 57.6474 64.3555 57.8935 64.702C58.0773 64.9661 58.3541 66.4688 58.6145 66.6271C58.5159 65.1353 58.6799 65.1525 58.9298 64.7371C58.9783 64.657 58.8799 64.142 58.9012 64.0773C58.9892 63.8023 59.1205 64.226 59.2051 63.9285C59.226 63.857 59.1974 63.3471 59.2135 63.2598C59.353 62.4979 59.7135 63.6335 59.7644 63.8327C59.975 64.5868 60.0486 63.922 60.1977 64.2212C60.3387 64.5209 60.1286 64.8936 60.2868 65.0762C60.6085 65.4538 61.0086 65.3942 61.3341 65.4511C61.4615 65.4704 61.4451 64.7835 61.4651 64.7705C61.7714 64.6287 61.9448 65.3856 62.3066 64.0673C61.9642 67.5676 62.533 63.7555 62.8325 64.5231C62.8555 64.5851 62.5885 66.224 62.4347 66.4438C62.2802 66.6633 62.1974 66.1225 61.9837 66.4739C61.929 66.5554 61.5096 68.0665 61.4777 68.1576C61.1945 68.8626 61.468 66.3978 61.4692 66.2605C61.5006 64.7828 61.0596 66.4246 60.9976 66.5365C60.6724 67.0429 60.4577 66.6866 60.2212 67.064C60.0675 67.3085 60.0766 68.9343 59.9771 68.8865C59.6423 68.7311 59.3471 66.4772 59.0691 68.4702C58.9981 68.8965 59.2437 70.6605 58.7443 69.2965C58.7108 69.2108 58.3337 67.9554 58.2045 68.7714C58.1879 68.8743 58.2159 69.3913 58.189 69.4362C58.0077 69.7272 57.8579 69.3211 57.6556 69.5261C57.451 69.7311 57.2023 70.0323 56.9602 69.8606C56.8124 69.7581 56.6219 68.7953 56.555 68.5595C56.3648 67.8805 56.1669 68.9953 56.0545 68.1709C55.9477 67.3422 56.1695 66.0868 55.8913 65.5493C55.8667 66.8941 55.8262 68.2742 55.7915 69.6265C55.1087 69.571 54.4689 69.1136 53.8082 69.1393C53.7255 69.1437 53.7724 69.8702 53.6827 69.8936C53.3019 69.9884 53.0103 69.454 52.615 69.6323C52.3095 69.7731 51.9265 70.5117 51.5988 70.6781C51.5376 69.129 51.0416 69.6103 50.7284 69.4391C50.6184 69.3799 50.6652 68.9714 50.597 68.8301C50.3419 68.3069 50.3508 69.6742 50.2455 69.8789C49.7894 70.7511 50.0736 67.6858 49.6535 67.7172C49.6323 67.718 49.1815 69.3193 49.1323 69.4165C48.8196 70.052 49.1564 68.8446 49.0215 68.7073C48.7744 68.4562 48.6347 68.0455 48.2628 68.4849C48.1545 68.6152 47.8073 69.6033 47.7131 68.7943C47.7011 68.6884 47.7836 68.1521 47.7677 68.1181C47.473 67.5476 47.2365 69.2352 46.9359 69.7785C46.6347 70.3209 46.4776 69.1177 46.4753 68.7699C46.4505 67.875 46.6551 68.4199 46.6808 68.3341C46.9414 67.3351 46.6868 67.4801 46.5377 67.3635C46.7718 65.7077 46.5286 65.7661 46.3791 67.2509C46.3634 67.4133 46.5165 67.2822 46.5377 67.3635C46.1406 68.9585 45.8404 69.1183 45.8006 67.553C45.7825 66.8194 46.0473 66.0173 45.5914 66.2437C45.3848 66.3456 45.2632 67.4936 45.0463 67.7718C44.5492 68.4061 44.2431 67.2528 43.8238 67.3408C43.6725 67.373 43.6889 68.0188 43.5805 68.0619C43.291 68.1778 43.1578 67.6681 42.8526 67.8518C42.8246 67.8692 42.749 68.5269 42.6666 68.5183C42.0338 68.4642 41.6221 67.9431 41.0029 67.7925C40.702 67.7198 40.0952 67.9539 39.801 67.8096C39.289 67.5638 38.8669 66.4749 38.3578 66.5878C38.0256 66.6585 37.9298 67.3141 37.6916 67.7175C37.2304 68.4995 37.1822 66.8762 37.1859 66.6275C37.1863 66.6194 37.4786 66.5343 37.4281 66.1717C37.5262 65.4685 37.1897 66.6253 37.1859 66.6275C37.1868 66.4667 36.7178 66.1892 36.5844 66.284C36.5119 66.336 36.3822 66.948 36.3472 66.9636C35.5241 67.3233 34.7878 67.2852 34.1796 66.8076C34.1709 66.792 34.3811 66.1252 34.3585 66.097C34.0476 65.6848 33.5561 66.4318 33.0802 66.8204C32.6052 67.2089 32.3887 66.966 32.5439 65.7592C32.2526 65.8286 32.0538 65.2121 31.9477 64.8416C31.8419 64.4713 31.4052 65.7598 31.3789 65.7797C30.5578 66.4228 30.4669 65.5752 29.9263 65.2685C29.6696 65.1204 29.0601 65.1226 28.7125 65.1596C28.4369 65.1911 28.3999 64.8405 28.1147 64.9561C28.0762 64.9714 27.9045 65.5531 27.8877 65.5719C27.4012 66.1686 28.0133 64.8144 28.0517 64.5474C28.1924 63.5767 28.2576 63.0564 27.7982 63.3712C27.6934 63.4434 26.7548 65.3705 26.5788 65.4385C26.3523 65.5236 26.6821 64.8308 26.439 64.938C26.4184 64.9465 26.2572 65.3896 26.1535 65.3287C25.6696 65.0516 25.2127 64.5823 24.6631 64.4153C24.5886 64.3908 24.4066 65.1231 24.2937 65.0988C23.7644 64.9839 23.2302 64.7356 22.8834 64.2099C22.7993 64.0784 23.077 63.6272 23.1119 63.4732C23.3225 62.5412 22.5679 63.7051 22.5199 63.7128C21.3812 63.9382 21.2192 62.5104 20.0816 62.6249C20.0204 62.6344 19.0088 63.7754 19.389 62.5629C19.4131 62.4817 19.8148 61.2476 19.2847 61.9665C19.2514 62.0113 19.0618 62.6558 18.9131 62.5074C18.7631 62.3585 18.272 62.6073 18.3558 61.8339C18.3806 61.5894 18.7886 60.358 18.0908 61.1473C18.0466 61.205 16.6084 63.0611 17.2256 61.5825C17.3278 61.3394 18.1444 59.8628 17.4638 60.4793C17.3319 60.5987 17.2485 60.9816 16.9981 61.1134C16.6118 61.3163 16.5512 60.7672 15.9233 61.2768C15.8146 61.3684 15.0476 62.2512 15.3199 61.405C15.3628 61.2727 15.6894 60.8105 15.6383 60.7084C15.3971 60.2211 14.8058 60.3094 14.6093 59.7327C14.541 59.5303 15.0878 58.7972 15.0742 58.5021C15.0602 58.2069 14.9061 57.8332 14.5368 58.091C14.1658 58.3481 13.5461 59.6755 13.2559 59.6269C11.9735 59.3996 11.4679 58.0067 10.5878 57.1674C10.4551 57.0407 10.2559 57.5445 10.0353 57.384C9.23384 56.8148 7.53348 55.9702 7.66002 54.5321C7.77793 53.403 8.87769 53.5488 8.76292 52.9251C8.7156 52.6341 7.30059 53.5963 7.21543 53.5836C6.38143 53.4869 6.64242 52.6551 6.09092 52.3544C5.97635 52.2913 5.52767 52.8216 5.43443 52.7609C5.10786 52.5526 5.11785 52.0742 4.84545 51.8066C4.72279 51.6881 4.32199 52.0245 4.25824 51.8705C4.10159 51.5054 4.07673 51.0874 4.28167 50.5128C4.30132 50.4619 4.96758 50.2893 4.83804 50.0515C4.62102 49.6574 4.76095 48.9665 4.09311 48.7994C3.89382 48.7515 2.83108 49.3011 3.41747 48.6507C3.54067 48.5148 4.85384 47.934 3.59286 48.1953C3.3841 48.2435 1.62103 48.4509 2.48763 47.7539C2.71136 47.5623 3.69748 46.8981 3.44461 46.772C3.40555 46.7548 2.86427 47.1236 2.73222 46.9692C2.25884 46.3661 2.10547 45.7029 1.72638 44.9367C1.62465 44.7279 1.04815 45.2072 0.916053 44.8736C0.546996 43.9565 0.598433 42.4824 0.940468 41.3372C1.06656 40.9155 1.5786 41.2809 1.64156 41.2549C2.66212 40.9245 1.42361 40.4515 1.38567 40.2564C1.16669 39.1158 2.04704 38.5299 2.29967 37.6682C2.37555 37.4258 1.73888 37.2943 1.71277 37.2232C1.49073 36.4825 2.28784 37.3718 2.55332 37.1531C3.35365 36.4713 3.72259 35.9724 3.82785 35.693C3.8829 35.5715 3.2173 35.2458 3.27421 35.1409C3.60617 34.5039 4.14004 33.9367 4.9438 33.5999C5.09595 33.5377 5.46556 33.9673 5.58269 34.0264C6.39618 34.4469 5.66601 33.4267 5.62814 33.2935C5.44549 32.6961 5.90509 32.9238 6.03779 32.6406C6.67882 31.2396 8.45205 30.0376 9.94003 29.2763C11.8702 28.2528 13.7835 28.0716 15.0738 27.4454C15.1664 27.4026 14.8116 26.7405 14.8894 26.6943C15.8908 26.1359 17.0313 26.0692 18.1118 25.5541C18.2015 25.5131 17.8813 24.8688 18.0219 24.7795C18.3089 24.5916 18.728 24.5261 19.1081 24.6692C19.2922 24.738 19.216 25.3767 19.3956 25.4347C19.812 25.5721 20.2129 25.5392 20.581 25.3552C20.7378 25.2755 20.353 24.6132 20.5715 24.5644C22.0499 24.2211 23.7122 23.9162 25.4347 24.8843C25.5549 24.9511 25.6099 26.4182 25.8554 26.1474C25.8916 25.7417 25.9124 25.2636 25.9405 24.8296C28.3047 24.5989 32.0712 26.309 33.4546 27.3261C33.5195 27.3653 33.777 26.6205 33.9054 26.6935C34.6619 27.1231 35.4948 27.3492 35.8764 28.4766C35.9146 28.5876 35.1726 29.7355 35.4991 29.6914C35.559 29.6832 35.9867 29.7309 36.2322 29.5344C36.2678 29.5039 36.5412 28.9228 36.6614 28.9756C37.3559 29.2934 37.9695 29.8648 38.4392 30.6795C38.513 30.8114 37.9995 31.2789 38.0467 31.3763C38.3812 32.0653 39.3249 32.12 39.6312 33.278C39.8369 34.0789 38.814 34.7179 38.1498 35.7206C38.05 35.8465 38.3163 36.272 37.7479 36.6468C36.2863 37.4976 34.7119 38.4701 33.1684 39.4015C32.8657 39.7241 32.6787 38.2422 32.1666 39.4487C32.1595 39.6157 32.2271 40.3174 32.0073 40.5369C31.8721 40.7223 31.248 41.033 31.12 41.3276C30.9913 41.6186 31.4975 41.3261 31.3118 41.6111C31.1167 41.8916 30.5652 42.4411 30.5646 42.5677ZM31.4797 63.1835C31.497 62.5025 30.7302 64.7693 31.1088 64.2901C31.128 64.2642 31.4794 63.2171 31.4797 63.1835ZM54.547 67.3066C54.3344 66.242 54.0875 67.7837 54.2364 68.6063C54.3905 69.4281 54.614 67.6293 54.547 67.3066ZM57.242 66.56C56.9229 65.7354 56.9318 69.1288 57.2636 68.4351C57.283 68.3958 57.2611 66.6078 57.242 66.56ZM37.0483 35.0777C37.031 35.1043 37.1492 35.2493 37.1755 35.2311C37.7641 34.7372 37.4993 34.4222 37.0483 35.0777ZM59.7532 65.58C59.6517 65.1237 59.4274 65.665 59.5606 66.23C59.6629 66.6843 59.873 66.1473 59.7532 65.58ZM23.0759 57.1951C23.0882 57.1615 23.002 57.0859 22.9187 57.2694C22.6504 57.8606 22.8685 57.7601 23.0759 57.1951ZM63.788 66.0248C63.2282 65.7656 63.3828 62.9381 64.0379 63.4013C64.1531 63.4851 63.5726 64.2148 63.6818 64.497C63.868 65.0085 64.4595 63.3389 64.5434 64.3288C64.5533 64.5085 63.8172 66.045 63.786 66.0284C63.7867 66.0272 63.7873 66.026 63.788 66.0248ZM32.2597 60.4152C32.2658 60.384 32.1315 60.3087 32.1183 60.3374C31.8046 61.0342 32.0774 61.1869 32.2597 60.4152ZM18.2181 52.9075C18.2465 52.846 17.9941 52.6117 17.9517 52.658C17.1293 53.6073 17.6558 54.096 18.2181 52.9075ZM42.4576 61.3753C42.7841 60.6653 42.99 60.6187 42.9108 61.5838C42.764 61.4994 42.6066 61.4568 42.4576 61.3753Z" fill="#EABE4C"/>
<path d="M43.6364 46.5245C42.7 44.8691 42.5696 43.252 42.6342 42.0603C42.6557 41.6849 43.1077 41.7835 43.1454 41.5322C43.22 41.0419 42.943 40.6513 43.0697 40.1842C43.114 40.0294 43.8053 40.107 43.837 39.9491C44.0072 39.0848 43.7469 38.3561 43.8093 37.5323C44.2058 33.3567 44.118 30.5156 45.3497 25.3782C45.8276 23.832 47.0152 22.5052 47.3467 21.1519C47.3845 20.9943 46.8099 20.8322 46.7787 20.7841C46.3109 20.0283 47.3213 20.678 47.5965 20.4709C48.6932 19.6388 49.3573 18.5381 49.726 17.4515C49.8803 16.9914 48.6276 16.8129 49.441 16.7268C49.4963 16.7203 49.9733 17.1439 50.0978 17.0645C50.3753 16.8896 50.5681 16.3541 50.73 16.1856C51.0431 15.8647 51.0771 15.7984 51.3007 15.4557C51.6145 14.9852 52.2337 14.5984 52.4484 14.0143C52.4919 13.8899 51.8629 13.6778 51.885 13.446C51.9082 13.2124 52.2523 12.7948 52.4784 12.7303C52.7049 12.6651 53.08 13.0112 53.1937 13.0494C54.1501 13.372 53.4273 12.0609 53.464 11.9582C54.0465 10.2249 55.6341 9.65226 56.7647 8.63364C57.6322 7.84914 58.4777 6.88364 59.424 6.29654C60.554 5.59957 61.683 5.36295 62.7666 4.76052C62.8821 4.69767 62.4102 4.0884 62.5543 4.00881C64.0842 3.16669 65.7239 2.62401 67.4503 2.6018C67.6227 2.60063 67.6253 3.29581 67.8074 3.33327C68.9299 3.54096 70.6962 4.41496 70.5389 1.47998C71.2412 1.4188 71.9166 1.36142 72.7695 1.77695C73.2966 2.05598 73.0014 2.84338 73.4692 2.44981C73.5739 2.36334 73.3195 1.76374 73.4911 1.68089C74.2226 1.33265 75.058 1.46977 75.782 1.12219C75.9303 1.05001 75.8757 0.485113 75.9171 0.382055C76.2797 -0.454301 76.8962 0.918538 77.0121 1.02214C77.9635 1.78931 78.6465 1.55674 79.5343 1.68962C79.7385 1.72172 79.5958 0.93441 79.8016 0.939557C80.8854 0.98645 81.906 1.23579 82.9823 1.9345C83.2315 2.09987 82.7801 2.63109 82.8826 2.74027C83.3158 3.21507 83.9094 2.13888 84.3118 2.62273C84.3941 2.72341 84.088 3.1913 84.0798 3.25516C83.9224 4.24421 84.7862 3.17837 84.8843 3.20018C86.0382 3.4068 85.7147 4.95075 86.4955 5.39081C86.5939 5.44751 86.8839 4.75758 87.1384 4.95698C88.8416 6.30317 89.8405 8.20477 90.242 9.99933C90.3058 10.2797 89.7513 10.376 89.704 10.4239C88.9643 11.1719 90.2301 10.6447 90.319 10.6971C90.9893 11.1311 90.2663 12.1764 91.9431 11.871C93.1376 15.3252 94.1798 18.7308 92.4659 21.6735C92.4456 21.71 91.7846 21.5804 91.747 21.652C91.2816 22.5057 92.3335 22.4355 93.5094 23.2376C93.8032 23.4469 92.2087 23.6782 92.091 23.6941C91.6568 23.7709 90.6987 23.4548 90.6113 23.4893C89.9226 23.764 93.1826 24.2798 93.0731 24.8494C93.0643 24.8657 92.4832 24.6752 92.4148 24.71C92.2007 24.8164 92.4078 25.0076 92.1741 25.1036C91.6326 25.325 90.048 25.0758 90.847 25.7513C90.9501 25.8391 92.795 26.1775 92.5869 26.6497C92.5046 26.8356 92.3068 27.7013 92.1206 27.9047C91.9365 28.1086 91.4036 27.7792 91.3736 27.7892C90.4269 28.1916 90.1784 27.8603 88.9587 27.8185C87.7444 27.7686 90.4486 28.5136 90.7079 28.7335C90.9665 28.954 90.1948 29.2049 89.9419 29.2402C89.6889 29.2771 89.3697 29.0221 89.2152 29.077C88.2029 29.4377 90.4409 29.7997 90.7893 30.1577C91.6095 31.0138 89.5068 30.7149 89.1514 31.0859C89.0545 31.1879 89.5353 31.2545 89.536 31.3789C89.5312 31.8715 88.8281 31.8913 89.1876 32.5963C89.2473 32.7087 90.2429 33.5825 89.2881 33.489C89.1511 33.4741 88.7149 33.1734 88.5328 33.309C88.2597 33.5126 87.9517 33.9464 87.9854 34.3014C88.0108 34.5633 88.898 34.6662 88.5387 34.8246C88.3786 34.8941 88.0175 34.4752 87.7552 34.6215C87.4975 34.7666 87.2354 35.3486 87.1333 35.5671C87.0327 35.7888 87.6683 35.9757 87.6977 36.0131C87.8607 36.2391 87.876 36.8349 87.8505 36.8732C86.7323 38.8597 84.6731 39.586 83.5935 41.2756C83.5079 41.4067 84.0755 41.8001 84.0675 41.8249C83.9059 42.4119 82.878 40.8572 82.1885 40.6986C83.2252 41.6199 82.8904 41.6077 82.7407 41.9771C82.6684 42.1565 83.1186 42.4642 83.1463 42.5144C83.5364 43.2797 82.6549 42.6712 82.4699 42.5515C81.7856 42.1146 82.3083 42.9136 81.8521 42.619C81.4004 42.3253 81.0486 41.5802 80.807 41.8293C81.0816 42.2542 82.1749 43.0001 82.1257 43.3406C81.9346 44.6394 79.8206 45.1835 79.1391 45.6329C78.4568 46.0878 78.3151 46.3268 77.8385 46.4962C76.9755 46.8001 77.8363 47.3323 77.7068 48.0135C77.574 48.6954 76.2671 46.7041 75.8842 46.3605C75.5035 46.0153 75.7744 46.4705 75.5257 46.313C75.2775 46.1551 75.2104 45.7625 74.9782 45.8175C74.747 45.872 74.8618 46.9452 75.1363 47.4072C75.719 48.3856 76.6727 49.1365 75.9594 49.1776C75.918 49.1793 75.6119 48.6267 75.4733 48.6575C74.3855 48.9175 73.5473 49.54 72.4945 49.8214C72.3493 49.8591 72.0218 49.2368 71.9327 49.2524C71.0043 49.4118 71.9538 50.1527 72.3816 51.4606C71.4095 50.0306 70.567 49.3475 70.0595 49.7235C69.754 49.9488 70.2639 50.5077 70.3909 51.0792C70.4296 51.2512 69.9018 51.0027 70.0775 51.3144C70.6512 52.334 71.6388 53.2129 70.8046 53.1981C70.7669 53.1959 70.4559 52.6356 70.3538 52.6649C69.6931 52.8507 70.3609 53.8653 69.8979 54.3994C69.5316 54.8208 68.3187 54.8099 67.7545 55.0852C66.5954 53.529 66.3968 54.2357 67.0189 55.4427C66.6631 55.6431 66.3733 55.9575 65.9496 56.0474C65.8052 56.0779 65.5346 55.578 65.4844 55.5399C64.7018 54.9387 65.3538 56.0784 65.3169 56.1707C64.8985 57.1115 63.7181 56.8184 63.727 58.1135C63.7275 58.1603 64.6059 59.1825 63.7746 58.6118C63.7167 58.5732 63.5061 57.9304 63.1791 58.1714C62.856 58.4078 61.7905 58.4419 61.8442 59.2886C61.8555 59.4934 62.4166 60.4906 61.6036 60.1098C61.4933 60.0578 61.2381 59.7646 61.0437 59.6578C60.4211 59.3211 61.3595 60.313 60.3653 59.6854C59.3721 59.0568 58.4224 58.8139 58.6273 59.7881C58.6318 59.8181 59.3493 60.6367 59.2142 60.7645C58.9981 60.9673 58.5529 61.1344 58.3541 61.371C58.2599 61.4838 58.8249 61.8567 58.8172 61.884C58.4696 62.8288 57.7515 62.9317 57.1626 63.8891C57.0532 64.0728 57.815 64.7789 57.0434 64.9956C56.1977 65.2594 53.0012 64.2847 53.6318 65.5215C53.8877 66.0418 58.0091 66.834 55.8133 67.39C56.3206 68.5926 54.9185 70.65 56.7565 71.4508C56.8346 71.4877 57.7987 70.8092 57.8671 70.8929C57.9782 71.031 57.7124 71.5173 57.8084 71.6389C58.21 72.156 58.9373 72.0541 59.424 72.3295C59.6158 72.4342 59.3415 72.9345 59.6026 73.0586C59.8734 73.1804 60.2351 72.5146 60.5072 72.9419C60.7088 73.265 60.7702 74.8168 61.2036 75.0442C61.3898 73.5595 61.6581 73.6257 62.1374 73.2535C62.2278 73.1809 62.1584 72.6568 62.2008 72.5955C62.3662 72.3343 62.5057 72.7691 62.6657 72.4782C62.7039 72.4083 62.7093 71.8976 62.739 71.8115C62.9719 71.0609 63.4012 72.1957 63.4924 72.3918C63.8113 73.1391 63.9188 72.4679 64.1574 72.7544C64.3984 73.0405 64.0821 73.4328 64.3572 73.599C64.926 73.9422 65.6167 73.8162 66.1697 73.8108C66.3866 73.8056 66.2035 73.1326 66.2337 73.1161C66.6823 72.9195 67.1747 73.6242 67.3732 72.2576C67.8274 75.7542 67.6362 71.9054 68.3202 72.5884C68.374 72.6438 68.4819 74.3016 68.297 74.5508C68.1096 74.7998 67.7985 74.2906 67.5435 74.6806C67.4811 74.772 67.184 76.3414 67.142 76.4377C66.7936 77.1904 66.6212 74.7155 66.593 74.5803C66.2862 73.1227 65.9209 74.8211 65.8115 74.9434C65.305 75.5036 64.8246 75.1847 64.3746 75.5895C64.0808 75.8509 64.1314 77.4757 63.8651 77.4382C62.9291 77.3084 62.6976 75.0571 61.6327 76.9629C61.3987 77.3637 61.4515 79.1642 60.7755 77.6842C60.7209 77.5903 60.3466 76.2508 59.8553 76.9735C59.7915 77.0647 59.6901 77.5724 59.62 77.6024C59.1458 77.7895 58.9644 77.3209 58.4467 77.3688C57.9273 77.4158 57.2146 77.4632 56.7302 77.0309C56.4427 76.7776 56.4496 75.6674 56.4918 75.4132C56.5756 74.6693 55.5415 75.3108 55.8296 74.495C56.1439 73.6925 57.2189 72.9404 57.154 72.2042C56.2851 73.231 55.3595 74.2568 54.446 75.2556C53.7759 74.6493 53.1014 73.8067 52.5733 72.5618C51.999 71.5022 51.9846 68.8569 52.0137 68.8717C52.0096 68.7573 51.2825 68.8436 51.2594 68.7207C51.1652 68.202 51.6964 67.7058 51.5264 67.0541C51.3924 66.5481 50.6702 65.9032 50.5487 65.2597C52.1176 65.0632 51.7199 64.1114 52.0268 63.4078C52.1323 63.1662 52.5285 63.2802 52.7027 63.1383C53.358 62.6093 51.9698 62.5452 51.8217 62.2863C51.2431 61.1032 54.1541 62.0681 54.5017 61.1869C54.5059 61.1593 53.4342 59.7184 53.4296 59.5452C53.3019 58.5255 53.9711 59.7508 54.3439 59.4285C55.0689 58.8214 55.4941 58.9993 55.4616 58.2951C55.4482 58.0946 54.9099 57.157 55.6952 57.4624C55.7979 57.5026 56.1909 57.8769 56.2348 57.8752C56.9966 57.8125 55.7342 56.6684 55.5237 56.0383C55.3156 55.4056 56.5382 55.8125 56.8574 55.9672C57.687 56.3621 56.9908 56.3753 57.045 56.444C57.6848 57.2622 57.802 56.8723 58.0576 56.7255C59.3079 57.8345 59.4959 57.4887 58.3182 56.5691C58.1885 56.4697 58.1521 56.7359 58.0576 56.7255C57.0251 55.4287 57.1988 54.9381 58.6375 55.6593C59.3111 55.9994 59.7514 56.7396 60.0165 56.0451C60.1396 55.7307 59.2504 54.9906 59.2371 54.5675C59.2163 53.5932 60.5819 53.8025 60.9864 53.2407C61.1369 53.0335 60.5454 52.7082 60.6364 52.5487C60.8754 52.1258 61.5257 52.2103 61.7179 51.758C61.7353 51.716 61.259 51.2503 61.3604 51.1622C62.0597 50.5321 62.9804 50.3653 63.7713 49.7828C64.154 49.5006 64.6074 48.7031 65.0397 48.4681C65.7892 48.056 67.1901 48.1972 67.6198 47.5763C67.8997 47.1751 67.418 46.713 67.3032 46.2352C67.0794 45.31 68.5647 46.1351 68.7859 46.2693C68.7931 46.274 68.5712 46.6413 68.947 46.7791C69.4761 47.2617 68.7843 46.2745 68.7859 46.2693C68.9294 46.356 69.6509 45.9864 69.698 45.7895C69.7235 45.6823 69.3015 45.2191 69.3219 45.1726C69.8141 44.0798 70.5368 43.3051 71.5419 42.8663C71.5643 42.8643 71.9826 43.4249 72.03 43.4134C72.7052 43.2655 72.4669 42.3544 72.5269 41.6446C72.5861 40.9353 72.991 40.8154 73.9941 41.5371C74.1821 41.179 74.9377 41.2272 75.3833 41.2646C75.8291 41.302 74.9633 40.2511 74.9653 40.2135C75.0233 39.0123 75.8915 39.2768 76.6052 38.7737C76.9433 38.5393 77.3806 37.8422 77.5788 37.4314C77.7328 37.1074 78.1006 37.1875 78.1691 36.8224C78.1783 36.7735 77.7124 36.3842 77.7043 36.359C77.4124 35.6158 78.3723 36.7541 78.613 36.885C79.4851 37.3623 79.9835 37.5813 79.9475 36.948C79.9416 36.8003 78.5444 35.1644 78.5592 34.9574C78.5847 34.687 79.1092 35.2491 79.1188 34.9529C79.1199 34.9281 78.7586 34.6257 78.8654 34.5311C79.3515 34.0936 79.99 33.7162 80.2866 33.198C80.3284 33.1284 79.6536 32.791 79.7001 32.6885C79.9403 32.1639 80.0538 32.041 80.608 31.7174C80.7422 31.6427 81.1852 31.9293 81.3387 31.9685C82.2631 32.2144 81.1689 31.3005 81.1624 31.2508C81.0676 29.8164 82.5586 29.4235 82.4414 28.0193C82.4343 27.9386 81.2218 26.9725 82.4838 27.1614C82.5675 27.1752 83.862 27.3607 83.0907 26.8912C83.0421 26.8625 82.3696 26.7904 82.5099 26.5774C82.6508 26.3618 82.3444 25.8622 83.136 25.7494C83.3847 25.7163 84.6919 25.8172 83.7919 25.2348C83.7314 25.1879 81.6178 24.1458 83.2022 24.3825C83.4627 24.4216 85.0953 24.8576 84.3439 24.2844C84.1972 24.1762 83.8018 24.212 83.6155 23.9791C83.3265 23.627 83.8482 23.3596 83.1747 22.8884C83.0561 22.8025 81.9738 22.3665 82.8617 22.3362C83.0009 22.3305 83.5461 22.4844 83.6257 22.3944C84.007 21.9635 83.702 21.4207 84.1349 20.9995C84.2871 20.8472 85.1863 21.0178 85.4453 20.8558C85.7044 20.696 85.9627 20.3293 85.5533 20.1259C85.1438 19.9269 83.6872 20.0646 83.5776 19.8195C83.0971 18.7937 83.8428 17.8984 83.7496 17.1429C83.7364 17.0369 83.2656 17.2692 83.2136 17.1433C83.2908 17.2294 81.7361 15.4052 82.2385 14.1224C82.6116 13.0409 83.671 13.4757 83.6736 12.7973C83.6664 12.4623 82.0999 13.1541 82.0267 13.1408C81.2694 12.9823 81.6661 12.2704 81.2295 12.1094C81.142 12.0806 80.6727 12.5839 80.6081 12.5596C80.3874 12.4867 80.4808 12.1454 80.3355 12.087C80.2705 12.0634 79.9298 12.4599 79.9229 12.4002C79.9012 12.2618 79.9887 12.0515 80.1878 11.5945C80.2027 11.5508 80.6302 11.0549 80.5662 10.9829C80.481 10.8781 80.4902 10.3408 80.2068 10.765C80.1281 10.8952 79.7873 12.0417 80.0052 11.2401C80.0372 11.0693 80.5021 9.70888 79.9632 10.8405C79.8457 11.0202 79.1091 12.5596 79.1175 11.4646C79.1215 11.1761 79.1826 9.99281 79.0068 10.1497C78.9835 10.1755 78.9466 10.8199 78.8256 10.8627C78.4026 11.0034 77.992 10.8829 77.5689 11.0494C77.4577 11.0954 77.5597 11.7693 77.4022 11.8179C76.9723 11.9525 76.4799 11.7717 76.0935 11.5765C75.9514 11.5033 76.0279 10.9507 76.0163 10.8912C75.8009 9.92506 75.7597 11.2441 75.7172 11.3236C75.4298 11.8024 75.1424 11.2162 74.9187 11.4185C74.8703 11.4707 75.0172 12.081 75.0167 12.1378C75.0453 12.6867 74.8969 11.5707 74.8175 11.459C74.6326 11.1302 73.8832 11.368 73.4798 11.5513C73.3182 11.6232 73.6844 12.2799 73.5388 12.3361C72.6727 12.6841 71.7817 12.8601 70.868 12.7314C70.6957 12.7059 70.6184 12.1435 70.548 12.032C70.0508 11.2527 70.1141 12.5178 70.0843 12.6512C69.9351 13.2635 69.6505 12.8407 69.4052 13.0303C68.2173 13.9575 66.6443 14.3622 65.5241 14.844C64.0863 15.4593 62.8147 15.8505 61.9606 17.0369C61.9095 17.1086 62.53 17.5281 62.4975 17.5914C62.1849 18.1998 61.1127 19.2897 60.5638 20.5413C60.5168 20.6448 61.1976 20.8894 61.1434 21.0668C61.0355 21.4347 60.7571 21.8063 60.3751 21.9981C60.1882 22.0952 59.7994 21.5716 59.6212 21.677C59.2067 21.9193 58.9296 22.2846 58.8136 22.7091C58.7664 22.8894 59.5263 23.0169 59.4165 23.2231C58.6865 24.6325 58.1444 25.9528 56.8125 26.7925C56.7228 26.8461 55.3212 26.4046 55.5185 26.6842C55.8959 26.8369 56.3462 26.999 56.7531 27.1525C56.5446 28.2202 56.4859 27.6861 56.2818 29.1323C56.1027 30.2445 55.9266 31.3726 55.9003 32.5443C55.8983 32.6421 56.6729 32.4652 56.6732 32.6521C56.6774 33.7393 56.9408 34.7568 56.2666 35.9136C56.2011 36.0284 54.8343 36.0962 55.0712 36.403C55.114 36.4603 55.3462 36.9279 55.6561 37.0196C55.7025 37.0311 56.3261 36.8721 56.3623 37.0219C56.562 37.8907 56.5558 38.7844 56.3423 39.6175C56.3069 39.7528 55.615 39.772 55.5848 39.872C55.3741 40.5889 56.0763 41.0639 55.564 41.3991C55.2015 41.6011 54.1491 42.1325 53.2204 42.8243C53.1028 42.9386 53.0545 42.9247 52.5841 43.4056C51.4654 44.6784 49.9349 45.762 48.7438 47.1229C48.3712 47.3932 50.4372 48.4026 48.7711 48.3606C48.5851 48.3403 47.3804 47.5661 47.0243 47.5737C46.7336 47.5531 46.4036 48.2571 45.9272 48.0845C45.4416 47.8893 45.7258 47.2653 45.2143 47.0179C44.7065 46.7699 44.0694 47.266 43.6364 46.5245ZM77.3935 41.4006C78.0504 41.6864 76.4672 39.8918 76.6235 40.5235C76.6329 40.5562 77.3608 41.387 77.3935 41.4006ZM54.0218 70.7094C54.8386 69.7587 53.3543 69.0515 52.5607 69.9276C51.8386 71.0004 53.8059 71.0793 54.0218 70.7094ZM58.7743 74.3318C58.5818 73.3556 57.0254 76.3774 58.0379 76.057C58.0972 76.0388 58.7898 74.3896 58.7743 74.3318ZM52.5903 42.2427C52.5607 42.2556 52.6019 42.4501 52.6327 42.4408C53.3716 42.2445 53.3056 41.9015 52.5903 42.2427ZM63.4524 74.1407C63.2899 73.6883 62.8639 74.2257 63.0656 74.793C63.2363 75.2502 63.6627 74.7044 63.4524 74.1407ZM88.0525 30.69C88.0876 30.698 88.1785 30.5451 87.9882 30.4787C87.3752 30.2651 87.4633 30.5537 88.0525 30.69ZM70.3523 73.8288C69.3428 73.7092 68.6542 70.921 69.795 71.2198C70.0001 71.2744 69.3657 72.1194 69.6308 72.3685C70.1048 72.8225 70.4084 71.0603 70.901 72.0023C70.9864 72.1745 70.4105 73.8416 70.3505 73.8327C70.3511 73.8314 70.3517 73.8301 70.3523 73.8288ZM79.454 43.4115C79.4799 43.4308 79.6797 43.2888 79.6626 43.2617C79.2452 42.614 78.8463 42.8964 79.454 43.4115ZM91.8681 20.9315C91.9378 20.9221 92.031 20.3295 91.968 20.3065C90.7405 19.9648 90.5531 21.0994 91.8681 20.9315ZM67.7156 55.0498C67.9632 55.8203 67.7665 56.0817 67.0205 55.4427C67.2592 55.3261 67.4747 55.1727 67.7156 55.0498Z" fill="#EABE4C"/>
</svg>
