<svg width="82" height="80" viewBox="0 0 82 80" fill="none" xmlns="http://www.w3.org/2000/svg">
<path d="M16.7736 72.9547C16.5998 70.758 16.8955 67.933 17.2667 65.7916C17.3821 65.1163 17.7954 65.4764 17.8943 65.0151C18.0875 64.1104 17.9076 63.2525 18.1342 62.3716C18.2115 62.0776 18.8702 62.4696 18.9359 62.1606C19.2913 60.4648 19.1795 58.8538 19.3892 57.132C20.425 48.6755 21.0647 40.3884 21.8304 31.8094C22.0894 28.9648 22.9406 25.511 22.959 22.5338C22.9599 22.1912 22.3537 22.3364 22.3117 22.2659C21.6748 21.1362 22.824 21.6151 23.0515 20.9535C23.9564 18.3172 24.3948 15.3636 24.6937 12.669C24.8269 11.5142 23.4398 12.4303 24.333 11.3968C24.3938 11.3272 24.9422 11.7478 25.0755 11.4537C25.3751 10.7749 25.6134 9.40531 25.8451 8.83512C26.2866 7.7629 26.3316 7.58599 26.8105 6.49039C27.3407 5.13579 29.5667 2.41591 32.1953 1.94146C32.7308 1.81878 31.8785 1.28695 32.7936 1.06443C33.6788 0.78069 36.2617 1.2584 36.9679 1.89221C37.585 2.37886 37.0279 2.66669 37.085 2.82773C37.4369 4.11691 39.534 4.20683 39.7316 4.35781C43.0057 6.79995 44.0437 9.66946 45.9943 12.2678C47.4549 14.2487 49.1706 16.2221 50.4771 18.13C52.0433 20.4231 53.0923 22.5236 54.67 24.6851C54.8338 24.9107 55.2663 24.2111 55.4674 24.4855C57.6399 27.4553 59.6452 30.5192 61.2428 33.7997C61.4101 34.1405 60.5901 34.1094 60.7238 34.4712C61.5472 36.6637 62.3757 40.2859 65.5305 39.8456C66.2506 41.1536 67.1626 42.784 67.4128 44.2649C67.5646 45.2042 66.5051 44.8786 67.329 45.6076C67.5144 45.7733 67.8785 45.1648 68.1239 45.4518C69.1575 46.662 69.8454 48.1693 70.9196 49.3214C71.1401 49.5565 71.5812 49.191 71.7145 49.2149C72.8054 49.4261 72.2637 51.1973 72.3115 51.4774C72.7021 53.6176 73.6847 54.7706 74.5821 56.485C74.7842 56.8739 75.2109 56.0561 75.4316 56.4226C76.582 58.3579 77.5641 60.5012 78.1504 62.6788C78.281 63.1692 77.5028 63.0069 77.5336 63.2523C77.6652 64.3144 78.8821 64.0532 79.0126 65.0834C79.0408 65.2998 78.4812 65.3947 78.4389 65.453C77.7686 66.3538 79.215 66.343 79.2983 66.4778C80.371 68.1546 79.432 69.7871 80.206 71.4387C80.3 71.6366 80.8068 70.9457 81.0306 71.5167C81.3411 72.4482 82.0053 73.3661 81.9584 75.6234C82.0222 76.7186 80.7605 78.9588 79.2833 79.3842C77.9121 79.8832 77.067 79.7337 76.3189 79.6495C73.3772 79.0929 71.9558 78.2774 69.9753 77.3915C69.3902 77.1131 69.9885 76.7513 69.9698 76.677C69.6649 75.5118 68.8495 76.6745 68.6329 76.6566C66.966 76.4908 65.9169 74.908 64.3297 76.0589C58.0444 73.1874 51.45 71.4864 45.6852 67.7381C45.6112 67.6919 45.9934 67.1202 45.8447 67.0307C44.055 65.9478 44.0524 67.0619 42.3384 67.7805C41.9081 67.961 41.4696 66.1583 41.4212 66.0206C41.25 65.5148 41.9212 64.6993 41.8434 64.5849C41.1844 63.6699 40.1935 66.8177 39.0221 66.3953C38.9872 66.3769 39.3474 65.8615 39.2693 65.7692C39.0269 65.4804 38.6415 65.5984 38.4111 65.2944C37.8865 64.5947 38.1701 62.994 36.8043 63.5066C36.6309 63.5751 36.2219 65.4108 35.201 64.9678C34.7939 64.7876 32.9269 64.1983 32.4455 63.9174C31.9622 63.6338 32.5043 63.1756 32.4754 63.1388C31.3089 61.9274 31.9461 61.7856 31.5779 60.4331C31.201 59.0849 30.5837 61.83 30.2049 62.0411C29.828 62.2512 28.9703 61.3081 28.776 61.014C28.5827 60.7192 29.0107 60.4452 28.8177 60.254C27.5232 58.998 27.7578 61.3957 27.1295 61.676C25.6357 62.3361 25.3 60.0636 24.2753 59.5353C23.9997 59.3928 24.098 59.9188 23.8255 59.8809C22.731 59.7187 22.3183 58.9086 20.955 59.0931C20.7367 59.1246 19.3942 60.0015 19.0635 58.923C19.0188 58.7685 19.4283 58.3593 19.0286 58.1029C18.4277 57.7181 17.2973 57.2105 16.5337 57.1245C15.9751 57.0632 16.2842 58.0785 15.72 57.5968C15.4683 57.3814 16.174 57.1029 15.6906 56.7382C15.217 56.3782 13.8344 55.8943 13.3047 55.7117C12.7787 55.5321 12.8342 56.2452 12.7766 56.2701C12.4373 56.4099 11.3159 56.3125 11.2272 56.2762C8.97676 55.4401 6.93886 54.3096 4.94437 53.1471C3.91341 52.5333 3.09788 52.1091 1.85863 51.3054C1.15449 51.0128 0.35008 48.9519 1.01935 48.1304C1.47966 47.2995 2.04763 46.8552 2.52132 46.4308C2.84607 46.158 2.22014 45.7707 2.26632 45.7229C3.29504 44.6727 3.36939 46.807 4.46121 46.8397C3.63732 45.7201 4.20615 45.6556 4.93962 45.0914C5.28019 44.8264 4.82745 44.4594 4.83579 44.3927C5.04846 43.3608 5.93988 44.0998 6.12881 44.2468C6.84425 44.7789 6.89 43.7231 7.35505 44.0918C7.82741 44.4532 7.573 45.4265 8.31919 45.0745C8.33066 44.5246 7.21572 43.6058 7.72513 43.145C9.64699 41.3934 14.268 40.6708 16.0846 40.0988C17.9388 39.5075 18.4977 39.2048 19.5953 38.9885C21.6127 38.5887 20.5875 37.9423 21.6113 37.0979C22.6505 36.2494 22.885 38.6839 23.2305 39.0995C23.5722 39.5162 23.5867 38.9537 23.8832 39.1433C24.1825 39.3319 23.8594 39.8176 24.3749 39.7418C24.8866 39.667 25.9263 38.328 25.9191 37.765C25.8974 36.5744 24.8948 35.6785 26.3225 35.605C26.4052 35.6014 26.3752 36.2738 26.6811 36.2303C29.1232 35.8587 31.4606 35.0517 33.8651 34.6375C34.1936 34.5824 34.152 35.3331 34.346 35.3083C36.3736 35.0497 35.3259 34.1859 35.9033 32.5995C36.2602 34.3053 37.1745 35.0988 38.6171 34.5889C39.4896 34.2809 39.071 33.6306 39.4449 32.9304C39.5556 32.7201 40.3385 32.9871 40.3283 32.6137C40.2966 31.3925 39.2849 30.38 40.9327 30.3313C41.0049 30.3311 41.0181 31.0012 41.2519 30.9571C42.7636 30.675 42.5462 29.4644 44.0345 28.7637C45.2072 28.2122 47.6223 28.1107 49.0568 27.706C49.708 29.5342 50.8557 28.6336 50.917 27.1823C51.8341 26.8997 52.7829 26.4554 53.7374 26.3097C54.0702 26.2573 54.0552 26.8596 54.115 26.9026C55.0205 27.5903 54.9825 26.2288 55.1733 26.1103C57.2022 24.9093 59.2307 25.3338 61.2861 24.0116C61.3546 23.9661 61.2921 22.6052 62.0456 23.4957C62.0897 23.5591 61.4367 24.2615 62.4928 24.1732C63.6034 24.1299 65.3041 24.4896 67.1541 24.1313C67.3633 23.8859 70.2366 23.9684 69.852 25.9416C69.7844 26.1339 69.3712 26.0753 69.2075 26.3188C68.641 26.9577 69.9562 27.3093 68.7238 27.7192C67.4432 28.1545 66.6283 28.1663 66.4215 29.8638C66.4165 29.9139 67.1394 30.7826 66.8871 31.1382C66.4785 31.7133 65.7284 32.45 65.3405 33.0548C65.1471 33.3568 65.8337 33.5323 65.8098 33.5912C64.8081 35.8039 63.3791 36.8865 61.7474 38.862C61.4458 39.2257 61.4539 40.8547 60.3494 41.1959C59.1468 41.5584 56.9785 38.8991 56.3594 41.1937C56.0963 42.1312 58.8704 45.4668 56.1431 45.5812C54.7291 48.5158 52.092 50.2386 50.7271 53.2348C50.6657 53.3688 51.3011 54.4482 51.0759 54.7079C50.7407 55.0908 50.1411 54.969 49.8878 55.2284C48.8145 56.3068 48.2961 57.6708 47.2992 58.744C46.9224 59.1504 46.6179 58.6385 46.1648 59.1238C45.7186 59.6006 45.987 60.4283 45.1362 60.8643C44.4872 61.1967 42.9049 60.7047 42.182 61.258C43.2788 62.2749 42.8589 62.7067 42.4189 63.7936C42.3343 64.0036 42.8749 64.1794 42.8547 64.2968C42.7845 64.7785 42.2177 64.7649 42.1758 65.2487C42.165 65.3657 42.5419 65.7103 42.5542 65.8255C42.668 66.8245 41.1068 66.8374 40.8291 66.8456C39.7911 66.8592 40.068 67.5414 39.477 67.7454C38.8867 67.9483 39.1633 67.091 38.5973 67.4415C37.4558 68.1346 36.3638 69.4432 35.4578 70.3887C35.097 70.7699 35.8336 70.9773 35.7934 71.0428C35.1776 71.9806 33.8745 72.2437 34.3861 73.6405C31.3952 71.6446 34.157 74.3593 32.4954 74.9152C32.3599 74.9593 31.156 73.8097 31.3278 73.3285C31.4997 72.847 32.3638 72.7493 32.5629 72.0268C32.6169 71.8518 32.1333 70.1456 32.1346 70.0103C32.2212 68.8914 34.125 70.4604 34.2543 70.5262C35.7116 71.1173 35.2186 69.1806 35.3337 68.8847C35.8321 67.5614 36.8284 66.9919 37.2823 65.933C37.5891 65.2337 36.4326 64.0896 36.8408 63.7145C38.2175 62.4415 40.3289 63.485 40.0307 60.8629C39.967 60.3024 38.3823 59.4154 40.3189 59.3307C40.4412 59.3254 42.0539 59.4249 41.8224 58.458C41.7926 58.3369 41.4002 57.9993 41.4291 57.8995C41.6279 57.2406 42.22 57.1852 42.5146 56.5359C42.809 55.8865 43.1151 55.0679 43.7518 54.5774C44.1337 54.2831 45.2617 54.4308 45.5891 54.4037C46.5231 54.3379 46.0881 53.102 46.9782 53.3091C47.8757 53.5129 48.3614 54.9192 49.4448 54.42C48.4174 53.551 47.3932 52.6211 46.3728 51.7311C47.8285 49.9754 49.5365 48.4476 50.8516 46.5496C51.0121 46.3154 50.2571 46.123 50.4137 45.8611C51.0821 44.7491 52.1528 44.1382 52.7627 42.9152C53.2297 41.9708 53.2474 40.6031 53.7097 39.5889C55.3575 39.909 55.835 38.2806 56.6173 37.3693C56.8934 37.0462 57.216 37.303 57.4903 37.1351C58.5184 36.4924 57.1006 36.1644 57.0925 35.7918C57.0705 34.18 59.6832 35.8109 60.4792 34.4711C60.5206 34.4034 59.704 32.6623 59.6967 32.4874C59.6305 31.3768 60.2589 32.6723 60.6586 32.2857C61.3849 31.5849 62.1125 31.1901 62.3458 29.9553C62.412 29.594 62.0215 28.3215 63.0392 28.2088C63.1735 28.1924 63.6018 28.5287 63.6667 28.4872C64.2358 28.0988 64.1721 27.658 63.9539 27.2012C63.845 26.9726 63.6977 26.7394 63.573 26.5043C63.607 25.9519 62.623 27.4252 62.7024 26.9085C62.3176 26.2339 63.319 26.8824 63.7003 27.1173C64.6262 27.5821 64.0579 26.77 64.1606 26.8926C65.2049 27.0654 64.8911 26.6941 65.1946 27.4546C66.7866 27.0101 66.9 27.1354 65.7944 28.1648C65.6343 28.2792 65.2747 27.5543 65.1946 27.4546C63.7195 29.0973 67.0157 30.7143 66.0504 28.869C65.7305 28.1609 66.1502 27.2703 64.7531 27.6952C64.0694 27.8944 64.4271 29.0162 63.8892 29.3815C62.7203 30.2019 61.1382 29.3961 59.8911 29.8991C59.4549 30.0773 60.0552 30.57 59.7654 30.7133C59.0091 31.0953 58.1387 30.868 57.3729 31.3758C57.3041 31.4226 57.6937 31.9878 57.4406 32.0809C55.5455 32.7934 53.5387 33.136 51.3342 33.9346C50.2579 34.3287 48.4829 35.3709 47.345 35.71C45.3976 36.2936 42.6998 36.2543 41.1417 37.0656C40.1286 37.5907 40.5947 38.1232 40.2831 38.7135C39.6815 39.8569 37.6122 38.944 37.3121 38.7953C37.307 38.7886 38.1639 38.3148 37.564 38.1711C37.045 37.6083 37.3209 38.7889 37.3121 38.7953C37.1159 38.7002 35.229 39.2197 34.9167 39.4658C34.7452 39.6007 35.0645 40.1498 34.9689 40.2098C32.6914 41.6225 30.2895 42.6531 27.7354 43.2662C27.6868 43.2704 27.5158 42.5891 27.4045 42.6071C25.8471 42.8403 25.2385 43.9714 24.2345 44.8793C23.2591 45.7767 22.2378 45.9733 21.1497 45.098C20.3004 45.5746 18.8795 45.5425 18.0248 45.5243C17.1849 45.5002 17.5813 46.8062 17.528 46.8554C15.8541 48.4249 14.4462 48.1411 12.4474 48.8493C11.4586 49.1974 9.7378 50.1818 8.94237 50.7523C8.27791 51.2192 7.71788 51.1608 7.33016 51.6303C7.27391 51.6962 7.65905 52.1711 7.64988 52.2039C7.52754 53.1334 6.98845 51.7279 6.73682 51.575C5.96757 50.8439 4.87719 51.465 5.94476 50.669C6.0447 50.4968 7.08234 50.1289 7.32629 48.3029C7.49766 46.3519 6.4668 44.8331 6.24685 44.6654C5.83699 44.2823 5.65128 45.0642 6.2512 45.1532C6.30772 45.1643 6.5082 44.7384 6.84257 44.9259C8.3814 45.7823 10.1258 46.8615 11.9296 47.5563C12.1736 47.6521 12.1482 46.8327 12.5057 46.9594C14.1894 47.5564 16.0085 48.2835 17.5477 49.2149C17.9278 49.4471 17.4925 49.8461 17.529 50.0247C17.7551 51.1073 18.9973 50.0965 19.1327 50.1162C22.4046 50.5646 24.4159 52.5115 27.7808 52.9138C27.9671 52.9346 29.7127 51.9259 29.967 53.3079C29.984 53.4004 30.2305 54.8088 31.0339 54.1291C31.0843 54.0868 30.8765 53.3348 31.5436 53.6026C32.2101 53.8703 33.4627 53.7905 34.198 54.7871C34.4326 55.1018 34.7465 56.5476 35.9407 55.8645C36.0173 55.8135 38.117 54.0761 38.0896 55.7527C38.0832 56.0283 37.4591 57.5964 38.7768 57.1354C39.0301 57.0455 38.7923 56.5646 39.3932 56.5242C40.3168 56.4614 41.2241 57.2616 42.457 56.9071C42.672 56.843 43.7931 56.0304 44.0758 57.0603C44.1199 57.2215 43.7535 57.6872 44.0379 57.8587C45.3884 58.6768 47.0348 58.8922 48.356 59.8122C48.8241 60.1372 48.2358 60.8876 48.6852 61.3207C49.1342 61.7534 50.1286 62.3873 50.8371 62.215C51.5472 62.043 51.4595 60.4524 52.34 60.6687C56.1644 61.6089 59.426 63.8117 62.9445 65.2828C63.4636 65.4998 63.2137 64.8498 63.9951 65.1346C66.8809 66.1943 71.9083 67.4637 73.97 69.2251C75.6043 70.6383 73.0232 70.571 74.3933 71.3521C75.069 71.7292 76.2971 70.3128 76.4839 70.3069C77.498 70.3138 77.5704 70.2709 77.1328 70.3737C76.8712 70.4555 76.1837 70.415 74.8419 71.3385C73.4325 72.2773 72.7228 74.3318 72.6873 74.9751C72.6164 75.5206 71.9434 74.9997 71.9151 75.4245C71.9513 76.6321 72.0072 75.3186 71.6114 74.4258C71.4468 74.0239 70.9782 74.2685 70.8894 73.8836C70.6719 72.9672 70.6176 72.1414 70.7785 71.1481C70.7929 71.0573 71.589 71.345 71.3833 70.7085C71.0485 69.6803 71.021 68.2695 70.0827 67.331C69.8025 67.0552 68.7081 67.5254 69.1498 66.4805C69.2417 66.2645 70.6418 65.8742 69.1332 65.5471C68.8782 65.4782 66.7421 64.8539 67.3663 63.6945C67.5329 63.3916 68.3599 62.4205 67.9864 62.0951C67.9321 62.0536 67.4735 62.5652 67.2461 62.2586C66.48 61.2237 65.8826 59.9706 65.0476 58.8902C64.8198 58.5961 64.5092 59.3986 64.1876 58.9502C63.3352 57.7753 62.5315 56.0679 61.9547 54.7085C61.7371 54.1965 62.4043 54.2386 62.435 54.1735C62.9294 53.1092 61.6257 53.4953 61.4484 53.3518C60.3639 52.4571 60.3696 51.2989 59.5763 50.3453C59.3642 50.0902 58.9588 50.6216 58.8766 50.596C58.0511 50.3108 59.2742 50.1407 59.1454 49.7054C58.7735 48.4625 58.0015 47.354 57.2384 46.3265C56.9682 45.9666 56.6348 46.786 56.3988 46.4578C54.9636 44.4823 53.6259 42.3429 52.6075 40.1135C52.4135 39.6882 53.0393 39.6163 53.0915 39.465C53.4677 38.424 51.938 38.339 51.7164 38.2193C50.7187 37.6931 50.8926 37.0702 50.3344 36.4164C47.5046 33.0862 44.8 28.6339 42.5676 25.1188C39.72 20.6518 37.7549 16.8798 34.7455 13.4229C34.5573 13.2101 34.1683 13.9045 34.003 13.7332C33.0205 12.6508 31.6873 11.453 32.0164 11.6922C32.3989 11.9211 33.4846 12.1836 34.0473 12.0517C34.62 12.1382 36.533 10.6973 36.4134 10.7624C36.5061 10.6691 36.9373 11.2782 37.1541 11.0558C37.4414 10.7739 37.05 11.4314 36.6627 11.9689C36.4653 12.2397 36.0151 11.6439 35.8241 11.9386C35.3728 12.6507 35.0874 13.6431 35.0041 14.6509C34.9691 15.0882 35.8006 14.5901 35.7044 15.1326C35.0715 18.8909 34.7862 23.0183 33.527 27.1852C33.4402 27.4826 31.9598 27.6127 32.1951 28.2651C32.5975 28.3415 33.0751 28.3727 33.5074 28.4242C33.3196 34.5439 32.5464 40.9009 32.1703 47.2126C32.1551 47.4798 32.952 47.0531 32.9264 47.5704C32.7795 50.5643 32.87 53.4745 31.9771 56.505C31.8897 56.8061 30.5301 56.5985 30.7018 57.4989C30.7333 57.6571 30.8638 59.0115 31.1473 59.3731C31.1903 59.4222 31.8368 59.1996 31.8392 59.6357C31.8422 62.1613 31.6069 64.7948 31.1456 67.2882C31.0699 67.696 30.4033 67.2407 30.3435 67.5306C29.925 69.5689 30.3888 71.8058 29.7446 73.7321C29.3121 75.0294 28.1449 74.5157 26.9824 75.2134C26.8182 75.314 26.7877 76.1152 26.1154 76.1595C24.4241 76.2647 22.5742 75.8518 20.7712 76.0117C20.3823 76.0529 20.7993 77.1555 19.8617 76.5032C19.7986 76.4612 19.4903 75.6339 19.1738 75.4373C18.9548 75.2962 18.2691 75.5441 17.9896 75.2551C17.7105 74.9609 18.2865 74.6592 17.9613 74.1807C17.6326 73.6949 16.8508 73.9073 16.7736 72.9547ZM14.2592 45.445C13.3434 45.107 14.1399 47.3657 14.6464 46.5469C14.6701 46.5046 14.3059 45.4608 14.2592 45.445ZM50.9624 49.5307C52.374 49.4083 51.5039 47.9723 50.4597 48.0124C49.4172 48.0502 50.5353 49.566 50.9624 49.5307ZM45.4999 57.6196C46.8452 57.3132 44.348 55.0097 44.1273 56.3387C44.1135 56.4153 45.4215 57.6375 45.4999 57.6196ZM26.6998 71.9742C26.6677 71.9851 26.6258 72.5725 26.6572 72.5855C27.4113 72.9102 27.4944 71.7397 26.6998 71.9742ZM39.7082 65.4823C40.2849 65.5298 40.5518 64.4429 39.8432 64.3763C39.2754 64.3207 38.9934 65.4209 39.7082 65.4823ZM24.5899 58.4101C24.5899 58.4475 24.9831 58.6017 25.0343 58.4065C25.196 57.7773 24.5853 57.7812 24.5899 58.4101ZM27.8924 76.6411C29.9191 75.6834 32.96 76.8271 30.3265 78.2542C29.8573 78.4857 30.7778 76.8935 30.0907 77.0427C28.8965 77.2765 29.0086 79.2043 27.506 78.8644C27.2556 78.7952 27.7917 76.6905 27.8943 76.6357C27.8937 76.6375 27.8931 76.6393 27.8924 76.6411ZM12.8039 42.9314C12.7774 42.9077 12.2294 43.0961 12.2296 43.13C12.2262 43.9505 13.3243 43.5737 12.8039 42.9314ZM47.3739 67.6841C47.3802 67.7584 48.6178 68.3031 48.682 68.2616C49.7891 67.3573 47.2815 66.2498 47.3739 67.6841ZM49.0968 27.7464C49.4346 26.8059 50.1004 26.4619 50.9139 27.1824C50.3021 27.3565 49.7175 27.5661 49.0968 27.7464Z" fill="#EABE4C"/>
</svg>
